%TF.GenerationSoftware,KiCad,Pcbnew,(6.0.8)*%
%TF.CreationDate,2022-11-06T21:15:53+08:00*%
%TF.ProjectId,JLinkV9-mini,4a4c696e-6b56-4392-9d6d-696e692e6b69,hinsshum*%
%TF.SameCoordinates,Original*%
%TF.FileFunction,Legend,Bot*%
%TF.FilePolarity,Positive*%
%FSLAX46Y46*%
G04 Gerber Fmt 4.6, Leading zero omitted, Abs format (unit mm)*
G04 Created by KiCad (PCBNEW (6.0.8)) date 2022-11-06 21:15:53*
%MOMM*%
%LPD*%
G01*
G04 APERTURE LIST*
%ADD10C,0.150000*%
%ADD11C,0.120000*%
G04 APERTURE END LIST*
D10*
%TO.C,R14*%
X120452857Y-76952380D02*
X120786190Y-76476190D01*
X121024285Y-76952380D02*
X121024285Y-75952380D01*
X120643333Y-75952380D01*
X120548095Y-76000000D01*
X120500476Y-76047619D01*
X120452857Y-76142857D01*
X120452857Y-76285714D01*
X120500476Y-76380952D01*
X120548095Y-76428571D01*
X120643333Y-76476190D01*
X121024285Y-76476190D01*
X119500476Y-76952380D02*
X120071904Y-76952380D01*
X119786190Y-76952380D02*
X119786190Y-75952380D01*
X119881428Y-76095238D01*
X119976666Y-76190476D01*
X120071904Y-76238095D01*
X118643333Y-76285714D02*
X118643333Y-76952380D01*
X118881428Y-75904761D02*
X119119523Y-76619047D01*
X118500476Y-76619047D01*
%TO.C,R21*%
X120542857Y-81752380D02*
X120876190Y-81276190D01*
X121114285Y-81752380D02*
X121114285Y-80752380D01*
X120733333Y-80752380D01*
X120638095Y-80800000D01*
X120590476Y-80847619D01*
X120542857Y-80942857D01*
X120542857Y-81085714D01*
X120590476Y-81180952D01*
X120638095Y-81228571D01*
X120733333Y-81276190D01*
X121114285Y-81276190D01*
X120161904Y-80847619D02*
X120114285Y-80800000D01*
X120019047Y-80752380D01*
X119780952Y-80752380D01*
X119685714Y-80800000D01*
X119638095Y-80847619D01*
X119590476Y-80942857D01*
X119590476Y-81038095D01*
X119638095Y-81180952D01*
X120209523Y-81752380D01*
X119590476Y-81752380D01*
X118638095Y-81752380D02*
X119209523Y-81752380D01*
X118923809Y-81752380D02*
X118923809Y-80752380D01*
X119019047Y-80895238D01*
X119114285Y-80990476D01*
X119209523Y-81038095D01*
%TO.C,R10*%
X120542857Y-87652380D02*
X120876190Y-87176190D01*
X121114285Y-87652380D02*
X121114285Y-86652380D01*
X120733333Y-86652380D01*
X120638095Y-86700000D01*
X120590476Y-86747619D01*
X120542857Y-86842857D01*
X120542857Y-86985714D01*
X120590476Y-87080952D01*
X120638095Y-87128571D01*
X120733333Y-87176190D01*
X121114285Y-87176190D01*
X119590476Y-87652380D02*
X120161904Y-87652380D01*
X119876190Y-87652380D02*
X119876190Y-86652380D01*
X119971428Y-86795238D01*
X120066666Y-86890476D01*
X120161904Y-86938095D01*
X118971428Y-86652380D02*
X118876190Y-86652380D01*
X118780952Y-86700000D01*
X118733333Y-86747619D01*
X118685714Y-86842857D01*
X118638095Y-87033333D01*
X118638095Y-87271428D01*
X118685714Y-87461904D01*
X118733333Y-87557142D01*
X118780952Y-87604761D01*
X118876190Y-87652380D01*
X118971428Y-87652380D01*
X119066666Y-87604761D01*
X119114285Y-87557142D01*
X119161904Y-87461904D01*
X119209523Y-87271428D01*
X119209523Y-87033333D01*
X119161904Y-86842857D01*
X119114285Y-86747619D01*
X119066666Y-86700000D01*
X118971428Y-86652380D01*
%TO.C,Q1*%
X121195238Y-84047619D02*
X121290476Y-84000000D01*
X121385714Y-83904761D01*
X121528571Y-83761904D01*
X121623809Y-83714285D01*
X121719047Y-83714285D01*
X121671428Y-83952380D02*
X121766666Y-83904761D01*
X121861904Y-83809523D01*
X121909523Y-83619047D01*
X121909523Y-83285714D01*
X121861904Y-83095238D01*
X121766666Y-83000000D01*
X121671428Y-82952380D01*
X121480952Y-82952380D01*
X121385714Y-83000000D01*
X121290476Y-83095238D01*
X121242857Y-83285714D01*
X121242857Y-83619047D01*
X121290476Y-83809523D01*
X121385714Y-83904761D01*
X121480952Y-83952380D01*
X121671428Y-83952380D01*
X120290476Y-83952380D02*
X120861904Y-83952380D01*
X120576190Y-83952380D02*
X120576190Y-82952380D01*
X120671428Y-83095238D01*
X120766666Y-83190476D01*
X120861904Y-83238095D01*
%TO.C,R18*%
X88442857Y-80052380D02*
X88776190Y-79576190D01*
X89014285Y-80052380D02*
X89014285Y-79052380D01*
X88633333Y-79052380D01*
X88538095Y-79100000D01*
X88490476Y-79147619D01*
X88442857Y-79242857D01*
X88442857Y-79385714D01*
X88490476Y-79480952D01*
X88538095Y-79528571D01*
X88633333Y-79576190D01*
X89014285Y-79576190D01*
X87490476Y-80052380D02*
X88061904Y-80052380D01*
X87776190Y-80052380D02*
X87776190Y-79052380D01*
X87871428Y-79195238D01*
X87966666Y-79290476D01*
X88061904Y-79338095D01*
X86919047Y-79480952D02*
X87014285Y-79433333D01*
X87061904Y-79385714D01*
X87109523Y-79290476D01*
X87109523Y-79242857D01*
X87061904Y-79147619D01*
X87014285Y-79100000D01*
X86919047Y-79052380D01*
X86728571Y-79052380D01*
X86633333Y-79100000D01*
X86585714Y-79147619D01*
X86538095Y-79242857D01*
X86538095Y-79290476D01*
X86585714Y-79385714D01*
X86633333Y-79433333D01*
X86728571Y-79480952D01*
X86919047Y-79480952D01*
X87014285Y-79528571D01*
X87061904Y-79576190D01*
X87109523Y-79671428D01*
X87109523Y-79861904D01*
X87061904Y-79957142D01*
X87014285Y-80004761D01*
X86919047Y-80052380D01*
X86728571Y-80052380D01*
X86633333Y-80004761D01*
X86585714Y-79957142D01*
X86538095Y-79861904D01*
X86538095Y-79671428D01*
X86585714Y-79576190D01*
X86633333Y-79528571D01*
X86728571Y-79480952D01*
%TO.C,R27*%
X88432857Y-86852380D02*
X88766190Y-86376190D01*
X89004285Y-86852380D02*
X89004285Y-85852380D01*
X88623333Y-85852380D01*
X88528095Y-85900000D01*
X88480476Y-85947619D01*
X88432857Y-86042857D01*
X88432857Y-86185714D01*
X88480476Y-86280952D01*
X88528095Y-86328571D01*
X88623333Y-86376190D01*
X89004285Y-86376190D01*
X88051904Y-85947619D02*
X88004285Y-85900000D01*
X87909047Y-85852380D01*
X87670952Y-85852380D01*
X87575714Y-85900000D01*
X87528095Y-85947619D01*
X87480476Y-86042857D01*
X87480476Y-86138095D01*
X87528095Y-86280952D01*
X88099523Y-86852380D01*
X87480476Y-86852380D01*
X87147142Y-85852380D02*
X86480476Y-85852380D01*
X86909047Y-86852380D01*
%TO.C,R19*%
X88442857Y-77352380D02*
X88776190Y-76876190D01*
X89014285Y-77352380D02*
X89014285Y-76352380D01*
X88633333Y-76352380D01*
X88538095Y-76400000D01*
X88490476Y-76447619D01*
X88442857Y-76542857D01*
X88442857Y-76685714D01*
X88490476Y-76780952D01*
X88538095Y-76828571D01*
X88633333Y-76876190D01*
X89014285Y-76876190D01*
X87490476Y-77352380D02*
X88061904Y-77352380D01*
X87776190Y-77352380D02*
X87776190Y-76352380D01*
X87871428Y-76495238D01*
X87966666Y-76590476D01*
X88061904Y-76638095D01*
X87014285Y-77352380D02*
X86823809Y-77352380D01*
X86728571Y-77304761D01*
X86680952Y-77257142D01*
X86585714Y-77114285D01*
X86538095Y-76923809D01*
X86538095Y-76542857D01*
X86585714Y-76447619D01*
X86633333Y-76400000D01*
X86728571Y-76352380D01*
X86919047Y-76352380D01*
X87014285Y-76400000D01*
X87061904Y-76447619D01*
X87109523Y-76542857D01*
X87109523Y-76780952D01*
X87061904Y-76876190D01*
X87014285Y-76923809D01*
X86919047Y-76971428D01*
X86728571Y-76971428D01*
X86633333Y-76923809D01*
X86585714Y-76876190D01*
X86538095Y-76780952D01*
%TO.C,R11*%
X120642857Y-94452380D02*
X120976190Y-93976190D01*
X121214285Y-94452380D02*
X121214285Y-93452380D01*
X120833333Y-93452380D01*
X120738095Y-93500000D01*
X120690476Y-93547619D01*
X120642857Y-93642857D01*
X120642857Y-93785714D01*
X120690476Y-93880952D01*
X120738095Y-93928571D01*
X120833333Y-93976190D01*
X121214285Y-93976190D01*
X119690476Y-94452380D02*
X120261904Y-94452380D01*
X119976190Y-94452380D02*
X119976190Y-93452380D01*
X120071428Y-93595238D01*
X120166666Y-93690476D01*
X120261904Y-93738095D01*
X118738095Y-94452380D02*
X119309523Y-94452380D01*
X119023809Y-94452380D02*
X119023809Y-93452380D01*
X119119047Y-93595238D01*
X119214285Y-93690476D01*
X119309523Y-93738095D01*
%TO.C,R16*%
X88442857Y-85552380D02*
X88776190Y-85076190D01*
X89014285Y-85552380D02*
X89014285Y-84552380D01*
X88633333Y-84552380D01*
X88538095Y-84600000D01*
X88490476Y-84647619D01*
X88442857Y-84742857D01*
X88442857Y-84885714D01*
X88490476Y-84980952D01*
X88538095Y-85028571D01*
X88633333Y-85076190D01*
X89014285Y-85076190D01*
X87490476Y-85552380D02*
X88061904Y-85552380D01*
X87776190Y-85552380D02*
X87776190Y-84552380D01*
X87871428Y-84695238D01*
X87966666Y-84790476D01*
X88061904Y-84838095D01*
X86633333Y-84552380D02*
X86823809Y-84552380D01*
X86919047Y-84600000D01*
X86966666Y-84647619D01*
X87061904Y-84790476D01*
X87109523Y-84980952D01*
X87109523Y-85361904D01*
X87061904Y-85457142D01*
X87014285Y-85504761D01*
X86919047Y-85552380D01*
X86728571Y-85552380D01*
X86633333Y-85504761D01*
X86585714Y-85457142D01*
X86538095Y-85361904D01*
X86538095Y-85123809D01*
X86585714Y-85028571D01*
X86633333Y-84980952D01*
X86728571Y-84933333D01*
X86919047Y-84933333D01*
X87014285Y-84980952D01*
X87061904Y-85028571D01*
X87109523Y-85123809D01*
%TO.C,R31*%
X120642857Y-95652380D02*
X120976190Y-95176190D01*
X121214285Y-95652380D02*
X121214285Y-94652380D01*
X120833333Y-94652380D01*
X120738095Y-94700000D01*
X120690476Y-94747619D01*
X120642857Y-94842857D01*
X120642857Y-94985714D01*
X120690476Y-95080952D01*
X120738095Y-95128571D01*
X120833333Y-95176190D01*
X121214285Y-95176190D01*
X120309523Y-94652380D02*
X119690476Y-94652380D01*
X120023809Y-95033333D01*
X119880952Y-95033333D01*
X119785714Y-95080952D01*
X119738095Y-95128571D01*
X119690476Y-95223809D01*
X119690476Y-95461904D01*
X119738095Y-95557142D01*
X119785714Y-95604761D01*
X119880952Y-95652380D01*
X120166666Y-95652380D01*
X120261904Y-95604761D01*
X120309523Y-95557142D01*
X118738095Y-95652380D02*
X119309523Y-95652380D01*
X119023809Y-95652380D02*
X119023809Y-94652380D01*
X119119047Y-94795238D01*
X119214285Y-94890476D01*
X119309523Y-94938095D01*
%TO.C,R28*%
X88432857Y-78852380D02*
X88766190Y-78376190D01*
X89004285Y-78852380D02*
X89004285Y-77852380D01*
X88623333Y-77852380D01*
X88528095Y-77900000D01*
X88480476Y-77947619D01*
X88432857Y-78042857D01*
X88432857Y-78185714D01*
X88480476Y-78280952D01*
X88528095Y-78328571D01*
X88623333Y-78376190D01*
X89004285Y-78376190D01*
X88051904Y-77947619D02*
X88004285Y-77900000D01*
X87909047Y-77852380D01*
X87670952Y-77852380D01*
X87575714Y-77900000D01*
X87528095Y-77947619D01*
X87480476Y-78042857D01*
X87480476Y-78138095D01*
X87528095Y-78280952D01*
X88099523Y-78852380D01*
X87480476Y-78852380D01*
X86909047Y-78280952D02*
X87004285Y-78233333D01*
X87051904Y-78185714D01*
X87099523Y-78090476D01*
X87099523Y-78042857D01*
X87051904Y-77947619D01*
X87004285Y-77900000D01*
X86909047Y-77852380D01*
X86718571Y-77852380D01*
X86623333Y-77900000D01*
X86575714Y-77947619D01*
X86528095Y-78042857D01*
X86528095Y-78090476D01*
X86575714Y-78185714D01*
X86623333Y-78233333D01*
X86718571Y-78280952D01*
X86909047Y-78280952D01*
X87004285Y-78328571D01*
X87051904Y-78376190D01*
X87099523Y-78471428D01*
X87099523Y-78661904D01*
X87051904Y-78757142D01*
X87004285Y-78804761D01*
X86909047Y-78852380D01*
X86718571Y-78852380D01*
X86623333Y-78804761D01*
X86575714Y-78757142D01*
X86528095Y-78661904D01*
X86528095Y-78471428D01*
X86575714Y-78376190D01*
X86623333Y-78328571D01*
X86718571Y-78280952D01*
%TO.C,C1*%
X75466666Y-87657142D02*
X75514285Y-87704761D01*
X75657142Y-87752380D01*
X75752380Y-87752380D01*
X75895238Y-87704761D01*
X75990476Y-87609523D01*
X76038095Y-87514285D01*
X76085714Y-87323809D01*
X76085714Y-87180952D01*
X76038095Y-86990476D01*
X75990476Y-86895238D01*
X75895238Y-86800000D01*
X75752380Y-86752380D01*
X75657142Y-86752380D01*
X75514285Y-86800000D01*
X75466666Y-86847619D01*
X74514285Y-87752380D02*
X75085714Y-87752380D01*
X74800000Y-87752380D02*
X74800000Y-86752380D01*
X74895238Y-86895238D01*
X74990476Y-86990476D01*
X75085714Y-87038095D01*
%TO.C,R29*%
X120542857Y-79352380D02*
X120876190Y-78876190D01*
X121114285Y-79352380D02*
X121114285Y-78352380D01*
X120733333Y-78352380D01*
X120638095Y-78400000D01*
X120590476Y-78447619D01*
X120542857Y-78542857D01*
X120542857Y-78685714D01*
X120590476Y-78780952D01*
X120638095Y-78828571D01*
X120733333Y-78876190D01*
X121114285Y-78876190D01*
X120161904Y-78447619D02*
X120114285Y-78400000D01*
X120019047Y-78352380D01*
X119780952Y-78352380D01*
X119685714Y-78400000D01*
X119638095Y-78447619D01*
X119590476Y-78542857D01*
X119590476Y-78638095D01*
X119638095Y-78780952D01*
X120209523Y-79352380D01*
X119590476Y-79352380D01*
X119114285Y-79352380D02*
X118923809Y-79352380D01*
X118828571Y-79304761D01*
X118780952Y-79257142D01*
X118685714Y-79114285D01*
X118638095Y-78923809D01*
X118638095Y-78542857D01*
X118685714Y-78447619D01*
X118733333Y-78400000D01*
X118828571Y-78352380D01*
X119019047Y-78352380D01*
X119114285Y-78400000D01*
X119161904Y-78447619D01*
X119209523Y-78542857D01*
X119209523Y-78780952D01*
X119161904Y-78876190D01*
X119114285Y-78923809D01*
X119019047Y-78971428D01*
X118828571Y-78971428D01*
X118733333Y-78923809D01*
X118685714Y-78876190D01*
X118638095Y-78780952D01*
%TO.C,R15*%
X120452857Y-75752380D02*
X120786190Y-75276190D01*
X121024285Y-75752380D02*
X121024285Y-74752380D01*
X120643333Y-74752380D01*
X120548095Y-74800000D01*
X120500476Y-74847619D01*
X120452857Y-74942857D01*
X120452857Y-75085714D01*
X120500476Y-75180952D01*
X120548095Y-75228571D01*
X120643333Y-75276190D01*
X121024285Y-75276190D01*
X119500476Y-75752380D02*
X120071904Y-75752380D01*
X119786190Y-75752380D02*
X119786190Y-74752380D01*
X119881428Y-74895238D01*
X119976666Y-74990476D01*
X120071904Y-75038095D01*
X118595714Y-74752380D02*
X119071904Y-74752380D01*
X119119523Y-75228571D01*
X119071904Y-75180952D01*
X118976666Y-75133333D01*
X118738571Y-75133333D01*
X118643333Y-75180952D01*
X118595714Y-75228571D01*
X118548095Y-75323809D01*
X118548095Y-75561904D01*
X118595714Y-75657142D01*
X118643333Y-75704761D01*
X118738571Y-75752380D01*
X118976666Y-75752380D01*
X119071904Y-75704761D01*
X119119523Y-75657142D01*
%TO.C,R1*%
X75466666Y-83852380D02*
X75800000Y-83376190D01*
X76038095Y-83852380D02*
X76038095Y-82852380D01*
X75657142Y-82852380D01*
X75561904Y-82900000D01*
X75514285Y-82947619D01*
X75466666Y-83042857D01*
X75466666Y-83185714D01*
X75514285Y-83280952D01*
X75561904Y-83328571D01*
X75657142Y-83376190D01*
X76038095Y-83376190D01*
X74514285Y-83852380D02*
X75085714Y-83852380D01*
X74800000Y-83852380D02*
X74800000Y-82852380D01*
X74895238Y-82995238D01*
X74990476Y-83090476D01*
X75085714Y-83138095D01*
%TO.C,R13*%
X88532857Y-81352380D02*
X88866190Y-80876190D01*
X89104285Y-81352380D02*
X89104285Y-80352380D01*
X88723333Y-80352380D01*
X88628095Y-80400000D01*
X88580476Y-80447619D01*
X88532857Y-80542857D01*
X88532857Y-80685714D01*
X88580476Y-80780952D01*
X88628095Y-80828571D01*
X88723333Y-80876190D01*
X89104285Y-80876190D01*
X87580476Y-81352380D02*
X88151904Y-81352380D01*
X87866190Y-81352380D02*
X87866190Y-80352380D01*
X87961428Y-80495238D01*
X88056666Y-80590476D01*
X88151904Y-80638095D01*
X87247142Y-80352380D02*
X86628095Y-80352380D01*
X86961428Y-80733333D01*
X86818571Y-80733333D01*
X86723333Y-80780952D01*
X86675714Y-80828571D01*
X86628095Y-80923809D01*
X86628095Y-81161904D01*
X86675714Y-81257142D01*
X86723333Y-81304761D01*
X86818571Y-81352380D01*
X87104285Y-81352380D01*
X87199523Y-81304761D01*
X87247142Y-81257142D01*
%TO.C,R12*%
X88532857Y-82552380D02*
X88866190Y-82076190D01*
X89104285Y-82552380D02*
X89104285Y-81552380D01*
X88723333Y-81552380D01*
X88628095Y-81600000D01*
X88580476Y-81647619D01*
X88532857Y-81742857D01*
X88532857Y-81885714D01*
X88580476Y-81980952D01*
X88628095Y-82028571D01*
X88723333Y-82076190D01*
X89104285Y-82076190D01*
X87580476Y-82552380D02*
X88151904Y-82552380D01*
X87866190Y-82552380D02*
X87866190Y-81552380D01*
X87961428Y-81695238D01*
X88056666Y-81790476D01*
X88151904Y-81838095D01*
X87199523Y-81647619D02*
X87151904Y-81600000D01*
X87056666Y-81552380D01*
X86818571Y-81552380D01*
X86723333Y-81600000D01*
X86675714Y-81647619D01*
X86628095Y-81742857D01*
X86628095Y-81838095D01*
X86675714Y-81980952D01*
X87247142Y-82552380D01*
X86628095Y-82552380D01*
%TO.C,R17*%
X88442857Y-88252380D02*
X88776190Y-87776190D01*
X89014285Y-88252380D02*
X89014285Y-87252380D01*
X88633333Y-87252380D01*
X88538095Y-87300000D01*
X88490476Y-87347619D01*
X88442857Y-87442857D01*
X88442857Y-87585714D01*
X88490476Y-87680952D01*
X88538095Y-87728571D01*
X88633333Y-87776190D01*
X89014285Y-87776190D01*
X87490476Y-88252380D02*
X88061904Y-88252380D01*
X87776190Y-88252380D02*
X87776190Y-87252380D01*
X87871428Y-87395238D01*
X87966666Y-87490476D01*
X88061904Y-87538095D01*
X87157142Y-87252380D02*
X86490476Y-87252380D01*
X86919047Y-88252380D01*
%TO.C,R22*%
X120542857Y-86452380D02*
X120876190Y-85976190D01*
X121114285Y-86452380D02*
X121114285Y-85452380D01*
X120733333Y-85452380D01*
X120638095Y-85500000D01*
X120590476Y-85547619D01*
X120542857Y-85642857D01*
X120542857Y-85785714D01*
X120590476Y-85880952D01*
X120638095Y-85928571D01*
X120733333Y-85976190D01*
X121114285Y-85976190D01*
X120161904Y-85547619D02*
X120114285Y-85500000D01*
X120019047Y-85452380D01*
X119780952Y-85452380D01*
X119685714Y-85500000D01*
X119638095Y-85547619D01*
X119590476Y-85642857D01*
X119590476Y-85738095D01*
X119638095Y-85880952D01*
X120209523Y-86452380D01*
X119590476Y-86452380D01*
X119209523Y-85547619D02*
X119161904Y-85500000D01*
X119066666Y-85452380D01*
X118828571Y-85452380D01*
X118733333Y-85500000D01*
X118685714Y-85547619D01*
X118638095Y-85642857D01*
X118638095Y-85738095D01*
X118685714Y-85880952D01*
X119257142Y-86452380D01*
X118638095Y-86452380D01*
%TO.C,R26*%
X120442857Y-78152380D02*
X120776190Y-77676190D01*
X121014285Y-78152380D02*
X121014285Y-77152380D01*
X120633333Y-77152380D01*
X120538095Y-77200000D01*
X120490476Y-77247619D01*
X120442857Y-77342857D01*
X120442857Y-77485714D01*
X120490476Y-77580952D01*
X120538095Y-77628571D01*
X120633333Y-77676190D01*
X121014285Y-77676190D01*
X120061904Y-77247619D02*
X120014285Y-77200000D01*
X119919047Y-77152380D01*
X119680952Y-77152380D01*
X119585714Y-77200000D01*
X119538095Y-77247619D01*
X119490476Y-77342857D01*
X119490476Y-77438095D01*
X119538095Y-77580952D01*
X120109523Y-78152380D01*
X119490476Y-78152380D01*
X118633333Y-77152380D02*
X118823809Y-77152380D01*
X118919047Y-77200000D01*
X118966666Y-77247619D01*
X119061904Y-77390476D01*
X119109523Y-77580952D01*
X119109523Y-77961904D01*
X119061904Y-78057142D01*
X119014285Y-78104761D01*
X118919047Y-78152380D01*
X118728571Y-78152380D01*
X118633333Y-78104761D01*
X118585714Y-78057142D01*
X118538095Y-77961904D01*
X118538095Y-77723809D01*
X118585714Y-77628571D01*
X118633333Y-77580952D01*
X118728571Y-77533333D01*
X118919047Y-77533333D01*
X119014285Y-77580952D01*
X119061904Y-77628571D01*
X119109523Y-77723809D01*
%TO.C,R25*%
X93442857Y-84752380D02*
X93776190Y-84276190D01*
X94014285Y-84752380D02*
X94014285Y-83752380D01*
X93633333Y-83752380D01*
X93538095Y-83800000D01*
X93490476Y-83847619D01*
X93442857Y-83942857D01*
X93442857Y-84085714D01*
X93490476Y-84180952D01*
X93538095Y-84228571D01*
X93633333Y-84276190D01*
X94014285Y-84276190D01*
X93061904Y-83847619D02*
X93014285Y-83800000D01*
X92919047Y-83752380D01*
X92680952Y-83752380D01*
X92585714Y-83800000D01*
X92538095Y-83847619D01*
X92490476Y-83942857D01*
X92490476Y-84038095D01*
X92538095Y-84180952D01*
X93109523Y-84752380D01*
X92490476Y-84752380D01*
X91585714Y-83752380D02*
X92061904Y-83752380D01*
X92109523Y-84228571D01*
X92061904Y-84180952D01*
X91966666Y-84133333D01*
X91728571Y-84133333D01*
X91633333Y-84180952D01*
X91585714Y-84228571D01*
X91538095Y-84323809D01*
X91538095Y-84561904D01*
X91585714Y-84657142D01*
X91633333Y-84704761D01*
X91728571Y-84752380D01*
X91966666Y-84752380D01*
X92061904Y-84704761D01*
X92109523Y-84657142D01*
%TO.C,R20*%
X120542857Y-80552380D02*
X120876190Y-80076190D01*
X121114285Y-80552380D02*
X121114285Y-79552380D01*
X120733333Y-79552380D01*
X120638095Y-79600000D01*
X120590476Y-79647619D01*
X120542857Y-79742857D01*
X120542857Y-79885714D01*
X120590476Y-79980952D01*
X120638095Y-80028571D01*
X120733333Y-80076190D01*
X121114285Y-80076190D01*
X120161904Y-79647619D02*
X120114285Y-79600000D01*
X120019047Y-79552380D01*
X119780952Y-79552380D01*
X119685714Y-79600000D01*
X119638095Y-79647619D01*
X119590476Y-79742857D01*
X119590476Y-79838095D01*
X119638095Y-79980952D01*
X120209523Y-80552380D01*
X119590476Y-80552380D01*
X118971428Y-79552380D02*
X118876190Y-79552380D01*
X118780952Y-79600000D01*
X118733333Y-79647619D01*
X118685714Y-79742857D01*
X118638095Y-79933333D01*
X118638095Y-80171428D01*
X118685714Y-80361904D01*
X118733333Y-80457142D01*
X118780952Y-80504761D01*
X118876190Y-80552380D01*
X118971428Y-80552380D01*
X119066666Y-80504761D01*
X119114285Y-80457142D01*
X119161904Y-80361904D01*
X119209523Y-80171428D01*
X119209523Y-79933333D01*
X119161904Y-79742857D01*
X119114285Y-79647619D01*
X119066666Y-79600000D01*
X118971428Y-79552380D01*
%TO.C,R30*%
X120642857Y-96952380D02*
X120976190Y-96476190D01*
X121214285Y-96952380D02*
X121214285Y-95952380D01*
X120833333Y-95952380D01*
X120738095Y-96000000D01*
X120690476Y-96047619D01*
X120642857Y-96142857D01*
X120642857Y-96285714D01*
X120690476Y-96380952D01*
X120738095Y-96428571D01*
X120833333Y-96476190D01*
X121214285Y-96476190D01*
X120309523Y-95952380D02*
X119690476Y-95952380D01*
X120023809Y-96333333D01*
X119880952Y-96333333D01*
X119785714Y-96380952D01*
X119738095Y-96428571D01*
X119690476Y-96523809D01*
X119690476Y-96761904D01*
X119738095Y-96857142D01*
X119785714Y-96904761D01*
X119880952Y-96952380D01*
X120166666Y-96952380D01*
X120261904Y-96904761D01*
X120309523Y-96857142D01*
X119071428Y-95952380D02*
X118976190Y-95952380D01*
X118880952Y-96000000D01*
X118833333Y-96047619D01*
X118785714Y-96142857D01*
X118738095Y-96333333D01*
X118738095Y-96571428D01*
X118785714Y-96761904D01*
X118833333Y-96857142D01*
X118880952Y-96904761D01*
X118976190Y-96952380D01*
X119071428Y-96952380D01*
X119166666Y-96904761D01*
X119214285Y-96857142D01*
X119261904Y-96761904D01*
X119309523Y-96571428D01*
X119309523Y-96333333D01*
X119261904Y-96142857D01*
X119214285Y-96047619D01*
X119166666Y-96000000D01*
X119071428Y-95952380D01*
D11*
%TO.C,R14*%
X117453641Y-76880000D02*
X117146359Y-76880000D01*
X117453641Y-76120000D02*
X117146359Y-76120000D01*
%TO.C,R21*%
X117453641Y-80920000D02*
X117146359Y-80920000D01*
X117453641Y-81680000D02*
X117146359Y-81680000D01*
%TO.C,R10*%
X117453641Y-86920000D02*
X117146359Y-86920000D01*
X117453641Y-87680000D02*
X117146359Y-87680000D01*
%TO.C,Q1*%
X118300000Y-85160000D02*
X117650000Y-85160000D01*
X118300000Y-82040000D02*
X117650000Y-82040000D01*
X118300000Y-82040000D02*
X119975000Y-82040000D01*
X118300000Y-85160000D02*
X118950000Y-85160000D01*
%TO.C,R18*%
X90246359Y-79980000D02*
X90553641Y-79980000D01*
X90246359Y-79220000D02*
X90553641Y-79220000D01*
%TO.C,R27*%
X90246359Y-86680000D02*
X90553641Y-86680000D01*
X90246359Y-85920000D02*
X90553641Y-85920000D01*
%TO.C,R19*%
X90246359Y-76520000D02*
X90553641Y-76520000D01*
X90246359Y-77280000D02*
X90553641Y-77280000D01*
%TO.C,R11*%
X117553641Y-94380000D02*
X117246359Y-94380000D01*
X117553641Y-93620000D02*
X117246359Y-93620000D01*
%TO.C,R16*%
X90246359Y-85480000D02*
X90553641Y-85480000D01*
X90246359Y-84720000D02*
X90553641Y-84720000D01*
%TO.C,R31*%
X117246359Y-95580000D02*
X117553641Y-95580000D01*
X117246359Y-94820000D02*
X117553641Y-94820000D01*
%TO.C,R28*%
X90236359Y-77920000D02*
X90543641Y-77920000D01*
X90236359Y-78680000D02*
X90543641Y-78680000D01*
%TO.C,C1*%
X75192164Y-85640000D02*
X75407836Y-85640000D01*
X75192164Y-86360000D02*
X75407836Y-86360000D01*
%TO.C,R29*%
X117146359Y-78520000D02*
X117453641Y-78520000D01*
X117146359Y-79280000D02*
X117453641Y-79280000D01*
%TO.C,R15*%
X117453641Y-74920000D02*
X117146359Y-74920000D01*
X117453641Y-75680000D02*
X117146359Y-75680000D01*
%TO.C,R1*%
X75453641Y-84220000D02*
X75146359Y-84220000D01*
X75453641Y-84980000D02*
X75146359Y-84980000D01*
%TO.C,R13*%
X90246359Y-80520000D02*
X90553641Y-80520000D01*
X90246359Y-81280000D02*
X90553641Y-81280000D01*
%TO.C,R12*%
X90246359Y-82480000D02*
X90553641Y-82480000D01*
X90246359Y-81720000D02*
X90553641Y-81720000D01*
%TO.C,R17*%
X90246359Y-87120000D02*
X90553641Y-87120000D01*
X90246359Y-87880000D02*
X90553641Y-87880000D01*
%TO.C,R22*%
X117146359Y-85720000D02*
X117453641Y-85720000D01*
X117146359Y-86480000D02*
X117453641Y-86480000D01*
%TO.C,R26*%
X117453641Y-78180000D02*
X117146359Y-78180000D01*
X117453641Y-77420000D02*
X117146359Y-77420000D01*
%TO.C,R25*%
X90246359Y-83880000D02*
X90553641Y-83880000D01*
X90246359Y-83120000D02*
X90553641Y-83120000D01*
%TO.C,R20*%
X117453641Y-80480000D02*
X117146359Y-80480000D01*
X117453641Y-79720000D02*
X117146359Y-79720000D01*
%TO.C,R30*%
X117246359Y-96680000D02*
X117553641Y-96680000D01*
X117246359Y-95920000D02*
X117553641Y-95920000D01*
%TD*%
M02*
