%TF.GenerationSoftware,KiCad,Pcbnew,(6.0.8)*%
%TF.CreationDate,2022-11-06T21:15:53+08:00*%
%TF.ProjectId,JLinkV9-mini,4a4c696e-6b56-4392-9d6d-696e692e6b69,hinsshum*%
%TF.SameCoordinates,Original*%
%TF.FileFunction,Soldermask,Top*%
%TF.FilePolarity,Negative*%
%FSLAX46Y46*%
G04 Gerber Fmt 4.6, Leading zero omitted, Abs format (unit mm)*
G04 Created by KiCad (PCBNEW (6.0.8)) date 2022-11-06 21:15:53*
%MOMM*%
%LPD*%
G01*
G04 APERTURE LIST*
G04 Aperture macros list*
%AMRoundRect*
0 Rectangle with rounded corners*
0 $1 Rounding radius*
0 $2 $3 $4 $5 $6 $7 $8 $9 X,Y pos of 4 corners*
0 Add a 4 corners polygon primitive as box body*
4,1,4,$2,$3,$4,$5,$6,$7,$8,$9,$2,$3,0*
0 Add four circle primitives for the rounded corners*
1,1,$1+$1,$2,$3*
1,1,$1+$1,$4,$5*
1,1,$1+$1,$6,$7*
1,1,$1+$1,$8,$9*
0 Add four rect primitives between the rounded corners*
20,1,$1+$1,$2,$3,$4,$5,0*
20,1,$1+$1,$4,$5,$6,$7,0*
20,1,$1+$1,$6,$7,$8,$9,0*
20,1,$1+$1,$8,$9,$2,$3,0*%
G04 Aperture macros list end*
%ADD10R,1.350000X1.350000*%
%ADD11O,1.350000X1.350000*%
%ADD12RoundRect,0.135000X0.135000X0.185000X-0.135000X0.185000X-0.135000X-0.185000X0.135000X-0.185000X0*%
%ADD13RoundRect,0.075000X0.725000X0.075000X-0.725000X0.075000X-0.725000X-0.075000X0.725000X-0.075000X0*%
%ADD14RoundRect,0.075000X0.075000X0.725000X-0.075000X0.725000X-0.075000X-0.725000X0.075000X-0.725000X0*%
%ADD15R,1.200000X1.400000*%
%ADD16R,1.000000X0.700000*%
%ADD17R,0.600000X0.700000*%
%ADD18RoundRect,0.140000X0.170000X-0.140000X0.170000X0.140000X-0.170000X0.140000X-0.170000X-0.140000X0*%
%ADD19RoundRect,0.135000X-0.135000X-0.185000X0.135000X-0.185000X0.135000X0.185000X-0.135000X0.185000X0*%
%ADD20RoundRect,0.140000X0.140000X0.170000X-0.140000X0.170000X-0.140000X-0.170000X0.140000X-0.170000X0*%
%ADD21RoundRect,0.150000X0.587500X0.150000X-0.587500X0.150000X-0.587500X-0.150000X0.587500X-0.150000X0*%
%ADD22RoundRect,0.140000X-0.140000X-0.170000X0.140000X-0.170000X0.140000X0.170000X-0.140000X0.170000X0*%
%ADD23RoundRect,0.225000X0.225000X0.250000X-0.225000X0.250000X-0.225000X-0.250000X0.225000X-0.250000X0*%
%ADD24RoundRect,0.225000X0.250000X-0.225000X0.250000X0.225000X-0.250000X0.225000X-0.250000X-0.225000X0*%
%ADD25RoundRect,0.200000X-0.200000X-0.275000X0.200000X-0.275000X0.200000X0.275000X-0.200000X0.275000X0*%
%ADD26C,0.650000*%
%ADD27R,1.450000X0.600000*%
%ADD28R,1.450000X0.300000*%
%ADD29O,1.600000X1.000000*%
%ADD30O,2.100000X1.000000*%
%ADD31R,0.550000X0.850000*%
%ADD32RoundRect,0.140000X-0.170000X0.140000X-0.170000X-0.140000X0.170000X-0.140000X0.170000X0.140000X0*%
%ADD33RoundRect,0.135000X-0.185000X0.135000X-0.185000X-0.135000X0.185000X-0.135000X0.185000X0.135000X0*%
%ADD34R,0.700000X1.000000*%
%ADD35R,0.700000X0.600000*%
%ADD36RoundRect,0.218750X0.218750X0.256250X-0.218750X0.256250X-0.218750X-0.256250X0.218750X-0.256250X0*%
G04 APERTURE END LIST*
D10*
%TO.C,J2*%
X99400000Y-97800000D03*
D11*
X101400000Y-97800000D03*
X103400000Y-97800000D03*
X105400000Y-97800000D03*
%TD*%
D12*
%TO.C,R8*%
X115910000Y-83100000D03*
X114890000Y-83100000D03*
%TD*%
D13*
%TO.C,U2*%
X110875000Y-91800000D03*
X110875000Y-91300000D03*
X110875000Y-90800000D03*
X110875000Y-90300000D03*
X110875000Y-89800000D03*
X110875000Y-89300000D03*
X110875000Y-88800000D03*
X110875000Y-88300000D03*
X110875000Y-87800000D03*
X110875000Y-87300000D03*
X110875000Y-86800000D03*
X110875000Y-86300000D03*
X110875000Y-85800000D03*
X110875000Y-85300000D03*
X110875000Y-84800000D03*
X110875000Y-84300000D03*
X110875000Y-83800000D03*
X110875000Y-83300000D03*
X110875000Y-82800000D03*
X110875000Y-82300000D03*
X110875000Y-81800000D03*
X110875000Y-81300000D03*
X110875000Y-80800000D03*
X110875000Y-80300000D03*
X110875000Y-79800000D03*
D14*
X109200000Y-78125000D03*
X108700000Y-78125000D03*
X108200000Y-78125000D03*
X107700000Y-78125000D03*
X107200000Y-78125000D03*
X106700000Y-78125000D03*
X106200000Y-78125000D03*
X105700000Y-78125000D03*
X105200000Y-78125000D03*
X104700000Y-78125000D03*
X104200000Y-78125000D03*
X103700000Y-78125000D03*
X103200000Y-78125000D03*
X102700000Y-78125000D03*
X102200000Y-78125000D03*
X101700000Y-78125000D03*
X101200000Y-78125000D03*
X100700000Y-78125000D03*
X100200000Y-78125000D03*
X99700000Y-78125000D03*
X99200000Y-78125000D03*
X98700000Y-78125000D03*
X98200000Y-78125000D03*
X97700000Y-78125000D03*
X97200000Y-78125000D03*
D13*
X95525000Y-79800000D03*
X95525000Y-80300000D03*
X95525000Y-80800000D03*
X95525000Y-81300000D03*
X95525000Y-81800000D03*
X95525000Y-82300000D03*
X95525000Y-82800000D03*
X95525000Y-83300000D03*
X95525000Y-83800000D03*
X95525000Y-84300000D03*
X95525000Y-84800000D03*
X95525000Y-85300000D03*
X95525000Y-85800000D03*
X95525000Y-86300000D03*
X95525000Y-86800000D03*
X95525000Y-87300000D03*
X95525000Y-87800000D03*
X95525000Y-88300000D03*
X95525000Y-88800000D03*
X95525000Y-89300000D03*
X95525000Y-89800000D03*
X95525000Y-90300000D03*
X95525000Y-90800000D03*
X95525000Y-91300000D03*
X95525000Y-91800000D03*
D14*
X97200000Y-93475000D03*
X97700000Y-93475000D03*
X98200000Y-93475000D03*
X98700000Y-93475000D03*
X99200000Y-93475000D03*
X99700000Y-93475000D03*
X100200000Y-93475000D03*
X100700000Y-93475000D03*
X101200000Y-93475000D03*
X101700000Y-93475000D03*
X102200000Y-93475000D03*
X102700000Y-93475000D03*
X103200000Y-93475000D03*
X103700000Y-93475000D03*
X104200000Y-93475000D03*
X104700000Y-93475000D03*
X105200000Y-93475000D03*
X105700000Y-93475000D03*
X106200000Y-93475000D03*
X106700000Y-93475000D03*
X107200000Y-93475000D03*
X107700000Y-93475000D03*
X108200000Y-93475000D03*
X108700000Y-93475000D03*
X109200000Y-93475000D03*
%TD*%
D12*
%TO.C,R23*%
X115910000Y-84500000D03*
X114890000Y-84500000D03*
%TD*%
D15*
%TO.C,Y1*%
X115400000Y-89800000D03*
X115400000Y-92000000D03*
X117100000Y-92000000D03*
X117100000Y-89800000D03*
%TD*%
D12*
%TO.C,R6*%
X90880000Y-89800000D03*
X89860000Y-89800000D03*
%TD*%
D10*
%TO.C,J4*%
X130500000Y-79400000D03*
D11*
X130500000Y-81400000D03*
X130500000Y-83400000D03*
X130500000Y-85400000D03*
X130500000Y-87400000D03*
X130500000Y-89400000D03*
X130500000Y-91400000D03*
%TD*%
D16*
%TO.C,D2*%
X90430000Y-84900000D03*
D17*
X88730000Y-84900000D03*
X88730000Y-86900000D03*
X90630000Y-86900000D03*
%TD*%
D18*
%TO.C,C9*%
X100100000Y-74680000D03*
X100100000Y-73720000D03*
%TD*%
%TO.C,C5*%
X119000000Y-92480000D03*
X119000000Y-91520000D03*
%TD*%
D19*
%TO.C,R5*%
X89860000Y-88600000D03*
X90880000Y-88600000D03*
%TD*%
D20*
%TO.C,C7*%
X115880000Y-86800000D03*
X114920000Y-86800000D03*
%TD*%
D12*
%TO.C,R9*%
X84910000Y-79300000D03*
X83890000Y-79300000D03*
%TD*%
D21*
%TO.C,U1*%
X90337500Y-82950000D03*
X90337500Y-81050000D03*
X88462500Y-82000000D03*
%TD*%
D22*
%TO.C,C13*%
X114920000Y-85600000D03*
X115880000Y-85600000D03*
%TD*%
D23*
%TO.C,C4*%
X90300000Y-79300000D03*
X88750000Y-79300000D03*
%TD*%
D24*
%TO.C,C6*%
X97300000Y-74275000D03*
X97300000Y-72725000D03*
%TD*%
D18*
%TO.C,C15*%
X95800000Y-73600000D03*
X95800000Y-72640000D03*
%TD*%
D22*
%TO.C,C12*%
X108000000Y-98000000D03*
X108960000Y-98000000D03*
%TD*%
D10*
%TO.C,J3*%
X125300000Y-85400000D03*
D11*
X125300000Y-87400000D03*
X125300000Y-89400000D03*
X125300000Y-91400000D03*
%TD*%
D12*
%TO.C,R3*%
X115910000Y-80800000D03*
X114890000Y-80800000D03*
%TD*%
D25*
%TO.C,R2*%
X88650000Y-77500000D03*
X90300000Y-77500000D03*
%TD*%
D26*
%TO.C,J1*%
X78440000Y-82710000D03*
X78440000Y-88490000D03*
D27*
X79885000Y-82350000D03*
X79885000Y-83150000D03*
D28*
X79885000Y-84350000D03*
X79885000Y-85350000D03*
X79885000Y-85850000D03*
X79885000Y-86850000D03*
D27*
X79885000Y-88050000D03*
X79885000Y-88850000D03*
X79885000Y-88850000D03*
X79885000Y-88050000D03*
D28*
X79885000Y-87350000D03*
X79885000Y-86350000D03*
X79885000Y-84850000D03*
X79885000Y-83850000D03*
D27*
X79885000Y-83150000D03*
X79885000Y-82350000D03*
D29*
X74790000Y-89920000D03*
D30*
X78970000Y-89920000D03*
D29*
X74790000Y-81280000D03*
D30*
X78970000Y-81280000D03*
%TD*%
D31*
%TO.C,D1*%
X102775000Y-73125000D03*
X102775000Y-74450000D03*
X101650000Y-73125000D03*
X101650000Y-74450000D03*
%TD*%
D20*
%TO.C,C11*%
X107580000Y-73200000D03*
X106620000Y-73200000D03*
%TD*%
D19*
%TO.C,R7*%
X107990000Y-96800000D03*
X109010000Y-96800000D03*
%TD*%
D20*
%TO.C,C8*%
X115880000Y-82000000D03*
X114920000Y-82000000D03*
%TD*%
D23*
%TO.C,C2*%
X84775000Y-83200000D03*
X83225000Y-83200000D03*
%TD*%
D12*
%TO.C,R33*%
X89620000Y-76000000D03*
X88600000Y-76000000D03*
%TD*%
D32*
%TO.C,C3*%
X119000000Y-89140000D03*
X119000000Y-90100000D03*
%TD*%
D19*
%TO.C,R24*%
X83890000Y-78000000D03*
X84910000Y-78000000D03*
%TD*%
D12*
%TO.C,R32*%
X107610000Y-74300000D03*
X106590000Y-74300000D03*
%TD*%
D33*
%TO.C,R4*%
X108910000Y-73180000D03*
X108910000Y-74200000D03*
%TD*%
D20*
%TO.C,C10*%
X90880000Y-91000000D03*
X89920000Y-91000000D03*
%TD*%
D34*
%TO.C,D3*%
X124400000Y-79650000D03*
D35*
X124400000Y-81350000D03*
X126400000Y-81350000D03*
X126400000Y-79450000D03*
%TD*%
D22*
%TO.C,C14*%
X89920000Y-92200000D03*
X90880000Y-92200000D03*
%TD*%
D36*
%TO.C,F1*%
X84800000Y-81400000D03*
X83225000Y-81400000D03*
%TD*%
M02*
