%TF.GenerationSoftware,KiCad,Pcbnew,(6.0.8)*%
%TF.CreationDate,2022-11-06T21:15:53+08:00*%
%TF.ProjectId,JLinkV9-mini,4a4c696e-6b56-4392-9d6d-696e692e6b69,hinsshum*%
%TF.SameCoordinates,Original*%
%TF.FileFunction,Legend,Top*%
%TF.FilePolarity,Positive*%
%FSLAX46Y46*%
G04 Gerber Fmt 4.6, Leading zero omitted, Abs format (unit mm)*
G04 Created by KiCad (PCBNEW (6.0.8)) date 2022-11-06 21:15:53*
%MOMM*%
%LPD*%
G01*
G04 APERTURE LIST*
%ADD10C,0.150000*%
%ADD11C,0.120000*%
G04 APERTURE END LIST*
D10*
%TO.C,J2*%
X96792380Y-98133333D02*
X97506666Y-98133333D01*
X97649523Y-98180952D01*
X97744761Y-98276190D01*
X97792380Y-98419047D01*
X97792380Y-98514285D01*
X96887619Y-97704761D02*
X96840000Y-97657142D01*
X96792380Y-97561904D01*
X96792380Y-97323809D01*
X96840000Y-97228571D01*
X96887619Y-97180952D01*
X96982857Y-97133333D01*
X97078095Y-97133333D01*
X97220952Y-97180952D01*
X97792380Y-97752380D01*
X97792380Y-97133333D01*
%TO.C,R8*%
X117433333Y-83652380D02*
X117100000Y-83176190D01*
X116861904Y-83652380D02*
X116861904Y-82652380D01*
X117242857Y-82652380D01*
X117338095Y-82700000D01*
X117385714Y-82747619D01*
X117433333Y-82842857D01*
X117433333Y-82985714D01*
X117385714Y-83080952D01*
X117338095Y-83128571D01*
X117242857Y-83176190D01*
X116861904Y-83176190D01*
X118004761Y-83080952D02*
X117909523Y-83033333D01*
X117861904Y-82985714D01*
X117814285Y-82890476D01*
X117814285Y-82842857D01*
X117861904Y-82747619D01*
X117909523Y-82700000D01*
X118004761Y-82652380D01*
X118195238Y-82652380D01*
X118290476Y-82700000D01*
X118338095Y-82747619D01*
X118385714Y-82842857D01*
X118385714Y-82890476D01*
X118338095Y-82985714D01*
X118290476Y-83033333D01*
X118195238Y-83080952D01*
X118004761Y-83080952D01*
X117909523Y-83128571D01*
X117861904Y-83176190D01*
X117814285Y-83271428D01*
X117814285Y-83461904D01*
X117861904Y-83557142D01*
X117909523Y-83604761D01*
X118004761Y-83652380D01*
X118195238Y-83652380D01*
X118290476Y-83604761D01*
X118338095Y-83557142D01*
X118385714Y-83461904D01*
X118385714Y-83271428D01*
X118338095Y-83176190D01*
X118290476Y-83128571D01*
X118195238Y-83080952D01*
%TO.C,U2*%
X110838095Y-93252380D02*
X110838095Y-94061904D01*
X110885714Y-94157142D01*
X110933333Y-94204761D01*
X111028571Y-94252380D01*
X111219047Y-94252380D01*
X111314285Y-94204761D01*
X111361904Y-94157142D01*
X111409523Y-94061904D01*
X111409523Y-93252380D01*
X111838095Y-93347619D02*
X111885714Y-93300000D01*
X111980952Y-93252380D01*
X112219047Y-93252380D01*
X112314285Y-93300000D01*
X112361904Y-93347619D01*
X112409523Y-93442857D01*
X112409523Y-93538095D01*
X112361904Y-93680952D01*
X111790476Y-94252380D01*
X112409523Y-94252380D01*
%TO.C,R23*%
X117357142Y-84952380D02*
X117023809Y-84476190D01*
X116785714Y-84952380D02*
X116785714Y-83952380D01*
X117166666Y-83952380D01*
X117261904Y-84000000D01*
X117309523Y-84047619D01*
X117357142Y-84142857D01*
X117357142Y-84285714D01*
X117309523Y-84380952D01*
X117261904Y-84428571D01*
X117166666Y-84476190D01*
X116785714Y-84476190D01*
X117738095Y-84047619D02*
X117785714Y-84000000D01*
X117880952Y-83952380D01*
X118119047Y-83952380D01*
X118214285Y-84000000D01*
X118261904Y-84047619D01*
X118309523Y-84142857D01*
X118309523Y-84238095D01*
X118261904Y-84380952D01*
X117690476Y-84952380D01*
X118309523Y-84952380D01*
X118642857Y-83952380D02*
X119261904Y-83952380D01*
X118928571Y-84333333D01*
X119071428Y-84333333D01*
X119166666Y-84380952D01*
X119214285Y-84428571D01*
X119261904Y-84523809D01*
X119261904Y-84761904D01*
X119214285Y-84857142D01*
X119166666Y-84904761D01*
X119071428Y-84952380D01*
X118785714Y-84952380D01*
X118690476Y-84904761D01*
X118642857Y-84857142D01*
%TO.C,Y1*%
X113023809Y-90176190D02*
X113023809Y-90652380D01*
X112690476Y-89652380D02*
X113023809Y-90176190D01*
X113357142Y-89652380D01*
X114214285Y-90652380D02*
X113642857Y-90652380D01*
X113928571Y-90652380D02*
X113928571Y-89652380D01*
X113833333Y-89795238D01*
X113738095Y-89890476D01*
X113642857Y-89938095D01*
%TO.C,R6*%
X87913333Y-90252380D02*
X87580000Y-89776190D01*
X87341904Y-90252380D02*
X87341904Y-89252380D01*
X87722857Y-89252380D01*
X87818095Y-89300000D01*
X87865714Y-89347619D01*
X87913333Y-89442857D01*
X87913333Y-89585714D01*
X87865714Y-89680952D01*
X87818095Y-89728571D01*
X87722857Y-89776190D01*
X87341904Y-89776190D01*
X88770476Y-89252380D02*
X88580000Y-89252380D01*
X88484761Y-89300000D01*
X88437142Y-89347619D01*
X88341904Y-89490476D01*
X88294285Y-89680952D01*
X88294285Y-90061904D01*
X88341904Y-90157142D01*
X88389523Y-90204761D01*
X88484761Y-90252380D01*
X88675238Y-90252380D01*
X88770476Y-90204761D01*
X88818095Y-90157142D01*
X88865714Y-90061904D01*
X88865714Y-89823809D01*
X88818095Y-89728571D01*
X88770476Y-89680952D01*
X88675238Y-89633333D01*
X88484761Y-89633333D01*
X88389523Y-89680952D01*
X88341904Y-89728571D01*
X88294285Y-89823809D01*
%TO.C,J4*%
X130166666Y-76792380D02*
X130166666Y-77506666D01*
X130119047Y-77649523D01*
X130023809Y-77744761D01*
X129880952Y-77792380D01*
X129785714Y-77792380D01*
X131071428Y-77125714D02*
X131071428Y-77792380D01*
X130833333Y-76744761D02*
X130595238Y-77459047D01*
X131214285Y-77459047D01*
%TO.C,D2*%
X86141904Y-87152380D02*
X86141904Y-86152380D01*
X86380000Y-86152380D01*
X86522857Y-86200000D01*
X86618095Y-86295238D01*
X86665714Y-86390476D01*
X86713333Y-86580952D01*
X86713333Y-86723809D01*
X86665714Y-86914285D01*
X86618095Y-87009523D01*
X86522857Y-87104761D01*
X86380000Y-87152380D01*
X86141904Y-87152380D01*
X87094285Y-86247619D02*
X87141904Y-86200000D01*
X87237142Y-86152380D01*
X87475238Y-86152380D01*
X87570476Y-86200000D01*
X87618095Y-86247619D01*
X87665714Y-86342857D01*
X87665714Y-86438095D01*
X87618095Y-86580952D01*
X87046666Y-87152380D01*
X87665714Y-87152380D01*
%TO.C,C9*%
X100557142Y-71566666D02*
X100604761Y-71614285D01*
X100652380Y-71757142D01*
X100652380Y-71852380D01*
X100604761Y-71995238D01*
X100509523Y-72090476D01*
X100414285Y-72138095D01*
X100223809Y-72185714D01*
X100080952Y-72185714D01*
X99890476Y-72138095D01*
X99795238Y-72090476D01*
X99700000Y-71995238D01*
X99652380Y-71852380D01*
X99652380Y-71757142D01*
X99700000Y-71614285D01*
X99747619Y-71566666D01*
X100652380Y-71090476D02*
X100652380Y-70900000D01*
X100604761Y-70804761D01*
X100557142Y-70757142D01*
X100414285Y-70661904D01*
X100223809Y-70614285D01*
X99842857Y-70614285D01*
X99747619Y-70661904D01*
X99700000Y-70709523D01*
X99652380Y-70804761D01*
X99652380Y-70995238D01*
X99700000Y-71090476D01*
X99747619Y-71138095D01*
X99842857Y-71185714D01*
X100080952Y-71185714D01*
X100176190Y-71138095D01*
X100223809Y-71090476D01*
X100271428Y-70995238D01*
X100271428Y-70804761D01*
X100223809Y-70709523D01*
X100176190Y-70661904D01*
X100080952Y-70614285D01*
%TO.C,C5*%
X120433333Y-92249306D02*
X120385714Y-92296925D01*
X120242857Y-92344544D01*
X120147619Y-92344544D01*
X120004761Y-92296925D01*
X119909523Y-92201687D01*
X119861904Y-92106449D01*
X119814285Y-91915973D01*
X119814285Y-91773116D01*
X119861904Y-91582640D01*
X119909523Y-91487402D01*
X120004761Y-91392164D01*
X120147619Y-91344544D01*
X120242857Y-91344544D01*
X120385714Y-91392164D01*
X120433333Y-91439783D01*
X121338095Y-91344544D02*
X120861904Y-91344544D01*
X120814285Y-91820735D01*
X120861904Y-91773116D01*
X120957142Y-91725497D01*
X121195238Y-91725497D01*
X121290476Y-91773116D01*
X121338095Y-91820735D01*
X121385714Y-91915973D01*
X121385714Y-92154068D01*
X121338095Y-92249306D01*
X121290476Y-92296925D01*
X121195238Y-92344544D01*
X120957142Y-92344544D01*
X120861904Y-92296925D01*
X120814285Y-92249306D01*
%TO.C,R5*%
X87913333Y-89052380D02*
X87580000Y-88576190D01*
X87341904Y-89052380D02*
X87341904Y-88052380D01*
X87722857Y-88052380D01*
X87818095Y-88100000D01*
X87865714Y-88147619D01*
X87913333Y-88242857D01*
X87913333Y-88385714D01*
X87865714Y-88480952D01*
X87818095Y-88528571D01*
X87722857Y-88576190D01*
X87341904Y-88576190D01*
X88818095Y-88052380D02*
X88341904Y-88052380D01*
X88294285Y-88528571D01*
X88341904Y-88480952D01*
X88437142Y-88433333D01*
X88675238Y-88433333D01*
X88770476Y-88480952D01*
X88818095Y-88528571D01*
X88865714Y-88623809D01*
X88865714Y-88861904D01*
X88818095Y-88957142D01*
X88770476Y-89004761D01*
X88675238Y-89052380D01*
X88437142Y-89052380D01*
X88341904Y-89004761D01*
X88294285Y-88957142D01*
%TO.C,C7*%
X117333333Y-87257142D02*
X117285714Y-87304761D01*
X117142857Y-87352380D01*
X117047619Y-87352380D01*
X116904761Y-87304761D01*
X116809523Y-87209523D01*
X116761904Y-87114285D01*
X116714285Y-86923809D01*
X116714285Y-86780952D01*
X116761904Y-86590476D01*
X116809523Y-86495238D01*
X116904761Y-86400000D01*
X117047619Y-86352380D01*
X117142857Y-86352380D01*
X117285714Y-86400000D01*
X117333333Y-86447619D01*
X117666666Y-86352380D02*
X118333333Y-86352380D01*
X117904761Y-87352380D01*
%TO.C,R9*%
X82133333Y-76552380D02*
X81800000Y-76076190D01*
X81561904Y-76552380D02*
X81561904Y-75552380D01*
X81942857Y-75552380D01*
X82038095Y-75600000D01*
X82085714Y-75647619D01*
X82133333Y-75742857D01*
X82133333Y-75885714D01*
X82085714Y-75980952D01*
X82038095Y-76028571D01*
X81942857Y-76076190D01*
X81561904Y-76076190D01*
X82609523Y-76552380D02*
X82800000Y-76552380D01*
X82895238Y-76504761D01*
X82942857Y-76457142D01*
X83038095Y-76314285D01*
X83085714Y-76123809D01*
X83085714Y-75742857D01*
X83038095Y-75647619D01*
X82990476Y-75600000D01*
X82895238Y-75552380D01*
X82704761Y-75552380D01*
X82609523Y-75600000D01*
X82561904Y-75647619D01*
X82514285Y-75742857D01*
X82514285Y-75980952D01*
X82561904Y-76076190D01*
X82609523Y-76123809D01*
X82704761Y-76171428D01*
X82895238Y-76171428D01*
X82990476Y-76123809D01*
X83038095Y-76076190D01*
X83085714Y-75980952D01*
%TO.C,U1*%
X91838095Y-81052380D02*
X91838095Y-81861904D01*
X91885714Y-81957142D01*
X91933333Y-82004761D01*
X92028571Y-82052380D01*
X92219047Y-82052380D01*
X92314285Y-82004761D01*
X92361904Y-81957142D01*
X92409523Y-81861904D01*
X92409523Y-81052380D01*
X93409523Y-82052380D02*
X92838095Y-82052380D01*
X93123809Y-82052380D02*
X93123809Y-81052380D01*
X93028571Y-81195238D01*
X92933333Y-81290476D01*
X92838095Y-81338095D01*
%TO.C,C13*%
X117257142Y-86057142D02*
X117209523Y-86104761D01*
X117066666Y-86152380D01*
X116971428Y-86152380D01*
X116828571Y-86104761D01*
X116733333Y-86009523D01*
X116685714Y-85914285D01*
X116638095Y-85723809D01*
X116638095Y-85580952D01*
X116685714Y-85390476D01*
X116733333Y-85295238D01*
X116828571Y-85200000D01*
X116971428Y-85152380D01*
X117066666Y-85152380D01*
X117209523Y-85200000D01*
X117257142Y-85247619D01*
X118209523Y-86152380D02*
X117638095Y-86152380D01*
X117923809Y-86152380D02*
X117923809Y-85152380D01*
X117828571Y-85295238D01*
X117733333Y-85390476D01*
X117638095Y-85438095D01*
X118542857Y-85152380D02*
X119161904Y-85152380D01*
X118828571Y-85533333D01*
X118971428Y-85533333D01*
X119066666Y-85580952D01*
X119114285Y-85628571D01*
X119161904Y-85723809D01*
X119161904Y-85961904D01*
X119114285Y-86057142D01*
X119066666Y-86104761D01*
X118971428Y-86152380D01*
X118685714Y-86152380D01*
X118590476Y-86104761D01*
X118542857Y-86057142D01*
%TO.C,C4*%
X86658333Y-79657142D02*
X86610714Y-79704761D01*
X86467857Y-79752380D01*
X86372619Y-79752380D01*
X86229761Y-79704761D01*
X86134523Y-79609523D01*
X86086904Y-79514285D01*
X86039285Y-79323809D01*
X86039285Y-79180952D01*
X86086904Y-78990476D01*
X86134523Y-78895238D01*
X86229761Y-78800000D01*
X86372619Y-78752380D01*
X86467857Y-78752380D01*
X86610714Y-78800000D01*
X86658333Y-78847619D01*
X87515476Y-79085714D02*
X87515476Y-79752380D01*
X87277380Y-78704761D02*
X87039285Y-79419047D01*
X87658333Y-79419047D01*
%TO.C,C6*%
X97757142Y-71166666D02*
X97804761Y-71214285D01*
X97852380Y-71357142D01*
X97852380Y-71452380D01*
X97804761Y-71595238D01*
X97709523Y-71690476D01*
X97614285Y-71738095D01*
X97423809Y-71785714D01*
X97280952Y-71785714D01*
X97090476Y-71738095D01*
X96995238Y-71690476D01*
X96900000Y-71595238D01*
X96852380Y-71452380D01*
X96852380Y-71357142D01*
X96900000Y-71214285D01*
X96947619Y-71166666D01*
X96852380Y-70309523D02*
X96852380Y-70500000D01*
X96900000Y-70595238D01*
X96947619Y-70642857D01*
X97090476Y-70738095D01*
X97280952Y-70785714D01*
X97661904Y-70785714D01*
X97757142Y-70738095D01*
X97804761Y-70690476D01*
X97852380Y-70595238D01*
X97852380Y-70404761D01*
X97804761Y-70309523D01*
X97757142Y-70261904D01*
X97661904Y-70214285D01*
X97423809Y-70214285D01*
X97328571Y-70261904D01*
X97280952Y-70309523D01*
X97233333Y-70404761D01*
X97233333Y-70595238D01*
X97280952Y-70690476D01*
X97328571Y-70738095D01*
X97423809Y-70785714D01*
%TO.C,C15*%
X96157142Y-71242857D02*
X96204761Y-71290476D01*
X96252380Y-71433333D01*
X96252380Y-71528571D01*
X96204761Y-71671428D01*
X96109523Y-71766666D01*
X96014285Y-71814285D01*
X95823809Y-71861904D01*
X95680952Y-71861904D01*
X95490476Y-71814285D01*
X95395238Y-71766666D01*
X95300000Y-71671428D01*
X95252380Y-71528571D01*
X95252380Y-71433333D01*
X95300000Y-71290476D01*
X95347619Y-71242857D01*
X96252380Y-70290476D02*
X96252380Y-70861904D01*
X96252380Y-70576190D02*
X95252380Y-70576190D01*
X95395238Y-70671428D01*
X95490476Y-70766666D01*
X95538095Y-70861904D01*
X95252380Y-69385714D02*
X95252380Y-69861904D01*
X95728571Y-69909523D01*
X95680952Y-69861904D01*
X95633333Y-69766666D01*
X95633333Y-69528571D01*
X95680952Y-69433333D01*
X95728571Y-69385714D01*
X95823809Y-69338095D01*
X96061904Y-69338095D01*
X96157142Y-69385714D01*
X96204761Y-69433333D01*
X96252380Y-69528571D01*
X96252380Y-69766666D01*
X96204761Y-69861904D01*
X96157142Y-69909523D01*
%TO.C,C12*%
X110757142Y-98357142D02*
X110709523Y-98404761D01*
X110566666Y-98452380D01*
X110471428Y-98452380D01*
X110328571Y-98404761D01*
X110233333Y-98309523D01*
X110185714Y-98214285D01*
X110138095Y-98023809D01*
X110138095Y-97880952D01*
X110185714Y-97690476D01*
X110233333Y-97595238D01*
X110328571Y-97500000D01*
X110471428Y-97452380D01*
X110566666Y-97452380D01*
X110709523Y-97500000D01*
X110757142Y-97547619D01*
X111709523Y-98452380D02*
X111138095Y-98452380D01*
X111423809Y-98452380D02*
X111423809Y-97452380D01*
X111328571Y-97595238D01*
X111233333Y-97690476D01*
X111138095Y-97738095D01*
X112090476Y-97547619D02*
X112138095Y-97500000D01*
X112233333Y-97452380D01*
X112471428Y-97452380D01*
X112566666Y-97500000D01*
X112614285Y-97547619D01*
X112661904Y-97642857D01*
X112661904Y-97738095D01*
X112614285Y-97880952D01*
X112042857Y-98452380D01*
X112661904Y-98452380D01*
%TO.C,J3*%
X124966666Y-82792380D02*
X124966666Y-83506666D01*
X124919047Y-83649523D01*
X124823809Y-83744761D01*
X124680952Y-83792380D01*
X124585714Y-83792380D01*
X125347619Y-82792380D02*
X125966666Y-82792380D01*
X125633333Y-83173333D01*
X125776190Y-83173333D01*
X125871428Y-83220952D01*
X125919047Y-83268571D01*
X125966666Y-83363809D01*
X125966666Y-83601904D01*
X125919047Y-83697142D01*
X125871428Y-83744761D01*
X125776190Y-83792380D01*
X125490476Y-83792380D01*
X125395238Y-83744761D01*
X125347619Y-83697142D01*
%TO.C,R3*%
X117333333Y-81252380D02*
X117000000Y-80776190D01*
X116761904Y-81252380D02*
X116761904Y-80252380D01*
X117142857Y-80252380D01*
X117238095Y-80300000D01*
X117285714Y-80347619D01*
X117333333Y-80442857D01*
X117333333Y-80585714D01*
X117285714Y-80680952D01*
X117238095Y-80728571D01*
X117142857Y-80776190D01*
X116761904Y-80776190D01*
X117666666Y-80252380D02*
X118285714Y-80252380D01*
X117952380Y-80633333D01*
X118095238Y-80633333D01*
X118190476Y-80680952D01*
X118238095Y-80728571D01*
X118285714Y-80823809D01*
X118285714Y-81061904D01*
X118238095Y-81157142D01*
X118190476Y-81204761D01*
X118095238Y-81252380D01*
X117809523Y-81252380D01*
X117714285Y-81204761D01*
X117666666Y-81157142D01*
%TO.C,R2*%
X86708333Y-77952380D02*
X86375000Y-77476190D01*
X86136904Y-77952380D02*
X86136904Y-76952380D01*
X86517857Y-76952380D01*
X86613095Y-77000000D01*
X86660714Y-77047619D01*
X86708333Y-77142857D01*
X86708333Y-77285714D01*
X86660714Y-77380952D01*
X86613095Y-77428571D01*
X86517857Y-77476190D01*
X86136904Y-77476190D01*
X87089285Y-77047619D02*
X87136904Y-77000000D01*
X87232142Y-76952380D01*
X87470238Y-76952380D01*
X87565476Y-77000000D01*
X87613095Y-77047619D01*
X87660714Y-77142857D01*
X87660714Y-77238095D01*
X87613095Y-77380952D01*
X87041666Y-77952380D01*
X87660714Y-77952380D01*
%TO.C,J1*%
X76376666Y-78902380D02*
X76376666Y-79616666D01*
X76329047Y-79759523D01*
X76233809Y-79854761D01*
X76090952Y-79902380D01*
X75995714Y-79902380D01*
X77376666Y-79902380D02*
X76805238Y-79902380D01*
X77090952Y-79902380D02*
X77090952Y-78902380D01*
X76995714Y-79045238D01*
X76900476Y-79140476D01*
X76805238Y-79188095D01*
%TO.C,D1*%
X102852380Y-71938095D02*
X101852380Y-71938095D01*
X101852380Y-71700000D01*
X101900000Y-71557142D01*
X101995238Y-71461904D01*
X102090476Y-71414285D01*
X102280952Y-71366666D01*
X102423809Y-71366666D01*
X102614285Y-71414285D01*
X102709523Y-71461904D01*
X102804761Y-71557142D01*
X102852380Y-71700000D01*
X102852380Y-71938095D01*
X102852380Y-70414285D02*
X102852380Y-70985714D01*
X102852380Y-70700000D02*
X101852380Y-70700000D01*
X101995238Y-70795238D01*
X102090476Y-70890476D01*
X102138095Y-70985714D01*
%TO.C,C11*%
X110267142Y-73557142D02*
X110219523Y-73604761D01*
X110076666Y-73652380D01*
X109981428Y-73652380D01*
X109838571Y-73604761D01*
X109743333Y-73509523D01*
X109695714Y-73414285D01*
X109648095Y-73223809D01*
X109648095Y-73080952D01*
X109695714Y-72890476D01*
X109743333Y-72795238D01*
X109838571Y-72700000D01*
X109981428Y-72652380D01*
X110076666Y-72652380D01*
X110219523Y-72700000D01*
X110267142Y-72747619D01*
X111219523Y-73652380D02*
X110648095Y-73652380D01*
X110933809Y-73652380D02*
X110933809Y-72652380D01*
X110838571Y-72795238D01*
X110743333Y-72890476D01*
X110648095Y-72938095D01*
X112171904Y-73652380D02*
X111600476Y-73652380D01*
X111886190Y-73652380D02*
X111886190Y-72652380D01*
X111790952Y-72795238D01*
X111695714Y-72890476D01*
X111600476Y-72938095D01*
%TO.C,R7*%
X110933333Y-97252380D02*
X110600000Y-96776190D01*
X110361904Y-97252380D02*
X110361904Y-96252380D01*
X110742857Y-96252380D01*
X110838095Y-96300000D01*
X110885714Y-96347619D01*
X110933333Y-96442857D01*
X110933333Y-96585714D01*
X110885714Y-96680952D01*
X110838095Y-96728571D01*
X110742857Y-96776190D01*
X110361904Y-96776190D01*
X111266666Y-96252380D02*
X111933333Y-96252380D01*
X111504761Y-97252380D01*
%TO.C,C8*%
X117333333Y-82357142D02*
X117285714Y-82404761D01*
X117142857Y-82452380D01*
X117047619Y-82452380D01*
X116904761Y-82404761D01*
X116809523Y-82309523D01*
X116761904Y-82214285D01*
X116714285Y-82023809D01*
X116714285Y-81880952D01*
X116761904Y-81690476D01*
X116809523Y-81595238D01*
X116904761Y-81500000D01*
X117047619Y-81452380D01*
X117142857Y-81452380D01*
X117285714Y-81500000D01*
X117333333Y-81547619D01*
X117904761Y-81880952D02*
X117809523Y-81833333D01*
X117761904Y-81785714D01*
X117714285Y-81690476D01*
X117714285Y-81642857D01*
X117761904Y-81547619D01*
X117809523Y-81500000D01*
X117904761Y-81452380D01*
X118095238Y-81452380D01*
X118190476Y-81500000D01*
X118238095Y-81547619D01*
X118285714Y-81642857D01*
X118285714Y-81690476D01*
X118238095Y-81785714D01*
X118190476Y-81833333D01*
X118095238Y-81880952D01*
X117904761Y-81880952D01*
X117809523Y-81928571D01*
X117761904Y-81976190D01*
X117714285Y-82071428D01*
X117714285Y-82261904D01*
X117761904Y-82357142D01*
X117809523Y-82404761D01*
X117904761Y-82452380D01*
X118095238Y-82452380D01*
X118190476Y-82404761D01*
X118238095Y-82357142D01*
X118285714Y-82261904D01*
X118285714Y-82071428D01*
X118238095Y-81976190D01*
X118190476Y-81928571D01*
X118095238Y-81880952D01*
%TO.C,C2*%
X82133333Y-78957142D02*
X82085714Y-79004761D01*
X81942857Y-79052380D01*
X81847619Y-79052380D01*
X81704761Y-79004761D01*
X81609523Y-78909523D01*
X81561904Y-78814285D01*
X81514285Y-78623809D01*
X81514285Y-78480952D01*
X81561904Y-78290476D01*
X81609523Y-78195238D01*
X81704761Y-78100000D01*
X81847619Y-78052380D01*
X81942857Y-78052380D01*
X82085714Y-78100000D01*
X82133333Y-78147619D01*
X82514285Y-78147619D02*
X82561904Y-78100000D01*
X82657142Y-78052380D01*
X82895238Y-78052380D01*
X82990476Y-78100000D01*
X83038095Y-78147619D01*
X83085714Y-78242857D01*
X83085714Y-78338095D01*
X83038095Y-78480952D01*
X82466666Y-79052380D01*
X83085714Y-79052380D01*
%TO.C,R33*%
X86067142Y-76552380D02*
X85733809Y-76076190D01*
X85495714Y-76552380D02*
X85495714Y-75552380D01*
X85876666Y-75552380D01*
X85971904Y-75600000D01*
X86019523Y-75647619D01*
X86067142Y-75742857D01*
X86067142Y-75885714D01*
X86019523Y-75980952D01*
X85971904Y-76028571D01*
X85876666Y-76076190D01*
X85495714Y-76076190D01*
X86400476Y-75552380D02*
X87019523Y-75552380D01*
X86686190Y-75933333D01*
X86829047Y-75933333D01*
X86924285Y-75980952D01*
X86971904Y-76028571D01*
X87019523Y-76123809D01*
X87019523Y-76361904D01*
X86971904Y-76457142D01*
X86924285Y-76504761D01*
X86829047Y-76552380D01*
X86543333Y-76552380D01*
X86448095Y-76504761D01*
X86400476Y-76457142D01*
X87352857Y-75552380D02*
X87971904Y-75552380D01*
X87638571Y-75933333D01*
X87781428Y-75933333D01*
X87876666Y-75980952D01*
X87924285Y-76028571D01*
X87971904Y-76123809D01*
X87971904Y-76361904D01*
X87924285Y-76457142D01*
X87876666Y-76504761D01*
X87781428Y-76552380D01*
X87495714Y-76552380D01*
X87400476Y-76504761D01*
X87352857Y-76457142D01*
%TO.C,C3*%
X120433333Y-89977142D02*
X120385714Y-90024761D01*
X120242857Y-90072380D01*
X120147619Y-90072380D01*
X120004761Y-90024761D01*
X119909523Y-89929523D01*
X119861904Y-89834285D01*
X119814285Y-89643809D01*
X119814285Y-89500952D01*
X119861904Y-89310476D01*
X119909523Y-89215238D01*
X120004761Y-89120000D01*
X120147619Y-89072380D01*
X120242857Y-89072380D01*
X120385714Y-89120000D01*
X120433333Y-89167619D01*
X120766666Y-89072380D02*
X121385714Y-89072380D01*
X121052380Y-89453333D01*
X121195238Y-89453333D01*
X121290476Y-89500952D01*
X121338095Y-89548571D01*
X121385714Y-89643809D01*
X121385714Y-89881904D01*
X121338095Y-89977142D01*
X121290476Y-90024761D01*
X121195238Y-90072380D01*
X120909523Y-90072380D01*
X120814285Y-90024761D01*
X120766666Y-89977142D01*
%TO.C,R24*%
X82157142Y-75352380D02*
X81823809Y-74876190D01*
X81585714Y-75352380D02*
X81585714Y-74352380D01*
X81966666Y-74352380D01*
X82061904Y-74400000D01*
X82109523Y-74447619D01*
X82157142Y-74542857D01*
X82157142Y-74685714D01*
X82109523Y-74780952D01*
X82061904Y-74828571D01*
X81966666Y-74876190D01*
X81585714Y-74876190D01*
X82538095Y-74447619D02*
X82585714Y-74400000D01*
X82680952Y-74352380D01*
X82919047Y-74352380D01*
X83014285Y-74400000D01*
X83061904Y-74447619D01*
X83109523Y-74542857D01*
X83109523Y-74638095D01*
X83061904Y-74780952D01*
X82490476Y-75352380D01*
X83109523Y-75352380D01*
X83966666Y-74685714D02*
X83966666Y-75352380D01*
X83728571Y-74304761D02*
X83490476Y-75019047D01*
X84109523Y-75019047D01*
%TO.C,R32*%
X110367142Y-74952380D02*
X110033809Y-74476190D01*
X109795714Y-74952380D02*
X109795714Y-73952380D01*
X110176666Y-73952380D01*
X110271904Y-74000000D01*
X110319523Y-74047619D01*
X110367142Y-74142857D01*
X110367142Y-74285714D01*
X110319523Y-74380952D01*
X110271904Y-74428571D01*
X110176666Y-74476190D01*
X109795714Y-74476190D01*
X110700476Y-73952380D02*
X111319523Y-73952380D01*
X110986190Y-74333333D01*
X111129047Y-74333333D01*
X111224285Y-74380952D01*
X111271904Y-74428571D01*
X111319523Y-74523809D01*
X111319523Y-74761904D01*
X111271904Y-74857142D01*
X111224285Y-74904761D01*
X111129047Y-74952380D01*
X110843333Y-74952380D01*
X110748095Y-74904761D01*
X110700476Y-74857142D01*
X111700476Y-74047619D02*
X111748095Y-74000000D01*
X111843333Y-73952380D01*
X112081428Y-73952380D01*
X112176666Y-74000000D01*
X112224285Y-74047619D01*
X112271904Y-74142857D01*
X112271904Y-74238095D01*
X112224285Y-74380952D01*
X111652857Y-74952380D01*
X112271904Y-74952380D01*
%TO.C,R4*%
X113452380Y-73966666D02*
X112976190Y-74300000D01*
X113452380Y-74538095D02*
X112452380Y-74538095D01*
X112452380Y-74157142D01*
X112500000Y-74061904D01*
X112547619Y-74014285D01*
X112642857Y-73966666D01*
X112785714Y-73966666D01*
X112880952Y-74014285D01*
X112928571Y-74061904D01*
X112976190Y-74157142D01*
X112976190Y-74538095D01*
X112785714Y-73109523D02*
X113452380Y-73109523D01*
X112404761Y-73347619D02*
X113119047Y-73585714D01*
X113119047Y-72966666D01*
%TO.C,C10*%
X87357142Y-91357142D02*
X87309523Y-91404761D01*
X87166666Y-91452380D01*
X87071428Y-91452380D01*
X86928571Y-91404761D01*
X86833333Y-91309523D01*
X86785714Y-91214285D01*
X86738095Y-91023809D01*
X86738095Y-90880952D01*
X86785714Y-90690476D01*
X86833333Y-90595238D01*
X86928571Y-90500000D01*
X87071428Y-90452380D01*
X87166666Y-90452380D01*
X87309523Y-90500000D01*
X87357142Y-90547619D01*
X88309523Y-91452380D02*
X87738095Y-91452380D01*
X88023809Y-91452380D02*
X88023809Y-90452380D01*
X87928571Y-90595238D01*
X87833333Y-90690476D01*
X87738095Y-90738095D01*
X88928571Y-90452380D02*
X89023809Y-90452380D01*
X89119047Y-90500000D01*
X89166666Y-90547619D01*
X89214285Y-90642857D01*
X89261904Y-90833333D01*
X89261904Y-91071428D01*
X89214285Y-91261904D01*
X89166666Y-91357142D01*
X89119047Y-91404761D01*
X89023809Y-91452380D01*
X88928571Y-91452380D01*
X88833333Y-91404761D01*
X88785714Y-91357142D01*
X88738095Y-91261904D01*
X88690476Y-91071428D01*
X88690476Y-90833333D01*
X88738095Y-90642857D01*
X88785714Y-90547619D01*
X88833333Y-90500000D01*
X88928571Y-90452380D01*
%TO.C,D3*%
X124681904Y-78472380D02*
X124681904Y-77472380D01*
X124920000Y-77472380D01*
X125062857Y-77520000D01*
X125158095Y-77615238D01*
X125205714Y-77710476D01*
X125253333Y-77900952D01*
X125253333Y-78043809D01*
X125205714Y-78234285D01*
X125158095Y-78329523D01*
X125062857Y-78424761D01*
X124920000Y-78472380D01*
X124681904Y-78472380D01*
X125586666Y-77472380D02*
X126205714Y-77472380D01*
X125872380Y-77853333D01*
X126015238Y-77853333D01*
X126110476Y-77900952D01*
X126158095Y-77948571D01*
X126205714Y-78043809D01*
X126205714Y-78281904D01*
X126158095Y-78377142D01*
X126110476Y-78424761D01*
X126015238Y-78472380D01*
X125729523Y-78472380D01*
X125634285Y-78424761D01*
X125586666Y-78377142D01*
%TO.C,C14*%
X87357142Y-92557142D02*
X87309523Y-92604761D01*
X87166666Y-92652380D01*
X87071428Y-92652380D01*
X86928571Y-92604761D01*
X86833333Y-92509523D01*
X86785714Y-92414285D01*
X86738095Y-92223809D01*
X86738095Y-92080952D01*
X86785714Y-91890476D01*
X86833333Y-91795238D01*
X86928571Y-91700000D01*
X87071428Y-91652380D01*
X87166666Y-91652380D01*
X87309523Y-91700000D01*
X87357142Y-91747619D01*
X88309523Y-92652380D02*
X87738095Y-92652380D01*
X88023809Y-92652380D02*
X88023809Y-91652380D01*
X87928571Y-91795238D01*
X87833333Y-91890476D01*
X87738095Y-91938095D01*
X89166666Y-91985714D02*
X89166666Y-92652380D01*
X88928571Y-91604761D02*
X88690476Y-92319047D01*
X89309523Y-92319047D01*
%TO.C,F1*%
X81966666Y-77228571D02*
X81633333Y-77228571D01*
X81633333Y-77752380D02*
X81633333Y-76752380D01*
X82109523Y-76752380D01*
X83014285Y-77752380D02*
X82442857Y-77752380D01*
X82728571Y-77752380D02*
X82728571Y-76752380D01*
X82633333Y-76895238D01*
X82538095Y-76990476D01*
X82442857Y-77038095D01*
D11*
%TO.C,J2*%
X99400000Y-98860000D02*
X98340000Y-98860000D01*
X98340000Y-98860000D02*
X98340000Y-97800000D01*
X100400000Y-98860000D02*
X100400000Y-96740000D01*
X100400000Y-96740000D02*
X106460000Y-96740000D01*
X106460000Y-98860000D02*
X106460000Y-96740000D01*
X100400000Y-98860000D02*
X106460000Y-98860000D01*
%TO.C,R8*%
X115553641Y-82720000D02*
X115246359Y-82720000D01*
X115553641Y-83480000D02*
X115246359Y-83480000D01*
%TO.C,U2*%
X96790000Y-92910000D02*
X96090000Y-92910000D01*
X109610000Y-92910000D02*
X110310000Y-92910000D01*
X96090000Y-78690000D02*
X96090000Y-79390000D01*
X96790000Y-78690000D02*
X96090000Y-78690000D01*
X110310000Y-78690000D02*
X110310000Y-79390000D01*
X109610000Y-78690000D02*
X110310000Y-78690000D01*
X110310000Y-92210000D02*
X111675000Y-92210000D01*
X96090000Y-92910000D02*
X96090000Y-92210000D01*
X110310000Y-92910000D02*
X110310000Y-92210000D01*
%TO.C,R23*%
X115553641Y-84880000D02*
X115246359Y-84880000D01*
X115553641Y-84120000D02*
X115246359Y-84120000D01*
%TO.C,Y1*%
X117900000Y-88900000D02*
X114600000Y-88900000D01*
X114600000Y-88900000D02*
X114600000Y-92900000D01*
%TO.C,R6*%
X90523641Y-90180000D02*
X90216359Y-90180000D01*
X90523641Y-89420000D02*
X90216359Y-89420000D01*
%TO.C,J4*%
X131560000Y-80400000D02*
X131560000Y-92460000D01*
X129440000Y-78340000D02*
X130500000Y-78340000D01*
X129440000Y-80400000D02*
X129440000Y-92460000D01*
X129440000Y-80400000D02*
X131560000Y-80400000D01*
X129440000Y-92460000D02*
X131560000Y-92460000D01*
X129440000Y-79400000D02*
X129440000Y-78340000D01*
%TO.C,D2*%
X88120000Y-85250000D02*
X88120000Y-86550000D01*
X91240000Y-86550000D02*
X91240000Y-84550000D01*
%TO.C,C9*%
X100460000Y-74307836D02*
X100460000Y-74092164D01*
X99740000Y-74307836D02*
X99740000Y-74092164D01*
%TO.C,C5*%
X118640000Y-92107836D02*
X118640000Y-91892164D01*
X119360000Y-92107836D02*
X119360000Y-91892164D01*
%TO.C,R5*%
X90216359Y-88220000D02*
X90523641Y-88220000D01*
X90216359Y-88980000D02*
X90523641Y-88980000D01*
%TO.C,C7*%
X115507836Y-87160000D02*
X115292164Y-87160000D01*
X115507836Y-86440000D02*
X115292164Y-86440000D01*
%TO.C,R9*%
X84553641Y-78920000D02*
X84246359Y-78920000D01*
X84553641Y-79680000D02*
X84246359Y-79680000D01*
%TO.C,U1*%
X89400000Y-80440000D02*
X90050000Y-80440000D01*
X89400000Y-83560000D02*
X91075000Y-83560000D01*
X89400000Y-80440000D02*
X88750000Y-80440000D01*
X89400000Y-83560000D02*
X88750000Y-83560000D01*
%TO.C,C13*%
X115292164Y-85960000D02*
X115507836Y-85960000D01*
X115292164Y-85240000D02*
X115507836Y-85240000D01*
%TO.C,C4*%
X89665580Y-79810000D02*
X89384420Y-79810000D01*
X89665580Y-78790000D02*
X89384420Y-78790000D01*
%TO.C,C6*%
X96790000Y-73640580D02*
X96790000Y-73359420D01*
X97810000Y-73640580D02*
X97810000Y-73359420D01*
%TO.C,C15*%
X95440000Y-73227836D02*
X95440000Y-73012164D01*
X96160000Y-73227836D02*
X96160000Y-73012164D01*
%TO.C,C12*%
X108372164Y-98360000D02*
X108587836Y-98360000D01*
X108372164Y-97640000D02*
X108587836Y-97640000D01*
%TO.C,J3*%
X126360000Y-86400000D02*
X126360000Y-92460000D01*
X124240000Y-85400000D02*
X124240000Y-84340000D01*
X124240000Y-86400000D02*
X126360000Y-86400000D01*
X124240000Y-84340000D02*
X125300000Y-84340000D01*
X124240000Y-92460000D02*
X126360000Y-92460000D01*
X124240000Y-86400000D02*
X124240000Y-92460000D01*
%TO.C,R3*%
X115553641Y-81180000D02*
X115246359Y-81180000D01*
X115553641Y-80420000D02*
X115246359Y-80420000D01*
%TO.C,R2*%
X89237742Y-78022500D02*
X89712258Y-78022500D01*
X89237742Y-76977500D02*
X89712258Y-76977500D01*
%TO.C,J1*%
X73840000Y-90300000D02*
X71940000Y-90300000D01*
X77740000Y-90300000D02*
X75740000Y-90300000D01*
X77740000Y-80900000D02*
X75740000Y-80900000D01*
X71940000Y-80900000D02*
X71940000Y-90300000D01*
X73840000Y-80900000D02*
X71940000Y-80900000D01*
%TO.C,D1*%
X101100000Y-72500000D02*
X103300000Y-72500000D01*
D10*
X102200000Y-74100000D02*
X102500000Y-73700000D01*
D11*
X101100000Y-75100000D02*
X101100000Y-72500000D01*
X103300000Y-75100000D02*
X101100000Y-75100000D01*
X103300000Y-72500000D02*
X103300000Y-75100000D01*
D10*
X101900000Y-73700000D02*
X102200000Y-74100000D01*
X102500000Y-73700000D02*
X101900000Y-73700000D01*
D11*
%TO.C,C11*%
X107207836Y-73560000D02*
X106992164Y-73560000D01*
X107207836Y-72840000D02*
X106992164Y-72840000D01*
%TO.C,R7*%
X108346359Y-97180000D02*
X108653641Y-97180000D01*
X108346359Y-96420000D02*
X108653641Y-96420000D01*
%TO.C,C8*%
X115507836Y-81640000D02*
X115292164Y-81640000D01*
X115507836Y-82360000D02*
X115292164Y-82360000D01*
%TO.C,C2*%
X84140580Y-82690000D02*
X83859420Y-82690000D01*
X84140580Y-83710000D02*
X83859420Y-83710000D01*
%TO.C,R33*%
X89263641Y-76380000D02*
X88956359Y-76380000D01*
X89263641Y-75620000D02*
X88956359Y-75620000D01*
%TO.C,C3*%
X119360000Y-89512164D02*
X119360000Y-89727836D01*
X118640000Y-89512164D02*
X118640000Y-89727836D01*
%TO.C,R24*%
X84246359Y-78380000D02*
X84553641Y-78380000D01*
X84246359Y-77620000D02*
X84553641Y-77620000D01*
%TO.C,R32*%
X107253641Y-74680000D02*
X106946359Y-74680000D01*
X107253641Y-73920000D02*
X106946359Y-73920000D01*
%TO.C,R4*%
X108530000Y-73536359D02*
X108530000Y-73843641D01*
X109290000Y-73536359D02*
X109290000Y-73843641D01*
%TO.C,C10*%
X90507836Y-91360000D02*
X90292164Y-91360000D01*
X90507836Y-90640000D02*
X90292164Y-90640000D01*
%TO.C,D3*%
X124750000Y-81960000D02*
X126050000Y-81960000D01*
X126050000Y-78840000D02*
X124050000Y-78840000D01*
%TO.C,C14*%
X90292164Y-92560000D02*
X90507836Y-92560000D01*
X90292164Y-91840000D02*
X90507836Y-91840000D01*
%TO.C,F1*%
X84175279Y-80890000D02*
X83849721Y-80890000D01*
X84175279Y-81910000D02*
X83849721Y-81910000D01*
%TD*%
M02*
