M48
; DRILL file {KiCad (6.0.8)} date Sun Nov  6 21:16:04 2022
; FORMAT={-:-/ absolute / metric / decimal}
; #@! TF.CreationDate,2022-11-06T21:16:04+08:00
; #@! TF.GenerationSoftware,Kicad,Pcbnew,(6.0.8)
; #@! TF.FileFunction,MixedPlating,1,2
FMAT,2
METRIC
; #@! TA.AperFunction,Plated,PTH,ViaDrill
T1C0.400
; #@! TA.AperFunction,Plated,PTH,ViaDrill
T2C0.500
; #@! TA.AperFunction,Plated,PTH,ComponentDrill
T3C0.600
; #@! TA.AperFunction,Plated,PTH,ComponentDrill
T4C0.800
; #@! TA.AperFunction,NonPlated,NPTH,ComponentDrill
T5C0.650
%
G90
G05
T1
X77.9Y-86.8
X77.924Y-85.599
X82.1Y-84.9
X82.1Y-86.4
X87.1Y-70.3
X90.0Y-68.775
X91.3Y-70.3
X93.6Y-83.1
X93.6Y-86.3
X97.7Y-85.8
X97.7Y-87.3
X97.7Y-88.6
X99.1Y-82.6
X102.3Y-80.2
X104.5Y-75.9
X105.649Y-75.9
X106.1Y-79.975
X106.7Y-91.6
X107.1Y-71.1
X107.6Y-75.7
X108.1Y-81.6
X109.2Y-83.4
T2
X76.5Y-88.4
X76.7Y-82.9
X76.9Y-76.2
X77.0Y-72.9
X77.1Y-68.3
X77.5Y-92.6
X77.5Y-95.6
X77.5Y-98.6
X81.1Y-79.6
X82.0Y-72.7
X82.1Y-68.3
X82.6Y-89.4
X82.8Y-80.0
X83.3Y-87.7
X83.4Y-96.0
X83.472Y-92.57
X83.5Y-99.1
X84.6Y-84.6
X85.3Y-87.6
X85.8Y-68.2
X86.6Y-83.6
X88.2Y-72.8
X88.2Y-95.6
X89.0Y-99.3
X93.0Y-91.8
X93.2Y-72.3
X93.2Y-75.8
X94.1Y-99.4
X94.3Y-94.9
X95.3Y-75.7
X95.4Y-77.6
X97.1Y-67.1
X98.8Y-72.7
X98.8Y-80.0
X99.4Y-91.2
X103.8Y-80.1
X104.2Y-84.4
X104.3Y-73.2
X104.3Y-87.8
X107.5Y-67.0
X108.2Y-86.8
X108.5Y-91.2
X108.9Y-89.0
X109.0Y-99.7
X112.6Y-78.9
X112.8Y-83.1
X112.9Y-95.4
X113.1Y-92.4
X113.8Y-82.0
X113.8Y-86.8
X114.7Y-73.9
X115.3Y-96.3
X115.5Y-78.8
X117.2Y-99.5
X121.2Y-73.5
X122.3Y-89.0
X122.5Y-95.0
X122.6Y-99.5
X124.5Y-76.7
X124.888Y-69.786
X125.5Y-94.9
X126.1Y-67.3
X126.9Y-99.5
X127.2Y-72.3
X130.185Y-68.672
X130.3Y-95.1
X130.4Y-97.7
X132.1Y-72.5
X132.2Y-75.7
X133.376Y-91.487
X133.586Y-85.4
X133.6Y-80.6
T4
X99.4Y-97.8
X101.4Y-97.8
X103.4Y-97.8
X105.4Y-97.8
X125.3Y-85.4
X125.3Y-87.4
X125.3Y-89.4
X125.3Y-91.4
X130.5Y-79.4
X130.5Y-81.4
X130.5Y-83.4
X130.5Y-85.4
X130.5Y-87.4
X130.5Y-89.4
X130.5Y-91.4
T5
X78.44Y-82.71
X78.44Y-88.49
T3
G00X75.09Y-81.28
M15
G01X74.49Y-81.28
M16
G05
G00X75.09Y-89.92
M15
G01X74.49Y-89.92
M16
G05
G00X79.52Y-81.28
M15
G01X78.42Y-81.28
M16
G05
G00X79.52Y-89.92
M15
G01X78.42Y-89.92
M16
G05
T0
M30
