%TF.GenerationSoftware,KiCad,Pcbnew,(6.0.8)*%
%TF.CreationDate,2022-11-06T21:15:53+08:00*%
%TF.ProjectId,JLinkV9-mini,4a4c696e-6b56-4392-9d6d-696e692e6b69,hinsshum*%
%TF.SameCoordinates,Original*%
%TF.FileFunction,Soldermask,Bot*%
%TF.FilePolarity,Negative*%
%FSLAX46Y46*%
G04 Gerber Fmt 4.6, Leading zero omitted, Abs format (unit mm)*
G04 Created by KiCad (PCBNEW (6.0.8)) date 2022-11-06 21:15:53*
%MOMM*%
%LPD*%
G01*
G04 APERTURE LIST*
G04 Aperture macros list*
%AMRoundRect*
0 Rectangle with rounded corners*
0 $1 Rounding radius*
0 $2 $3 $4 $5 $6 $7 $8 $9 X,Y pos of 4 corners*
0 Add a 4 corners polygon primitive as box body*
4,1,4,$2,$3,$4,$5,$6,$7,$8,$9,$2,$3,0*
0 Add four circle primitives for the rounded corners*
1,1,$1+$1,$2,$3*
1,1,$1+$1,$4,$5*
1,1,$1+$1,$6,$7*
1,1,$1+$1,$8,$9*
0 Add four rect primitives between the rounded corners*
20,1,$1+$1,$2,$3,$4,$5,0*
20,1,$1+$1,$4,$5,$6,$7,0*
20,1,$1+$1,$6,$7,$8,$9,0*
20,1,$1+$1,$8,$9,$2,$3,0*%
G04 Aperture macros list end*
%ADD10R,1.350000X1.350000*%
%ADD11O,1.350000X1.350000*%
%ADD12C,0.650000*%
%ADD13O,1.600000X1.000000*%
%ADD14O,2.100000X1.000000*%
%ADD15RoundRect,0.135000X0.135000X0.185000X-0.135000X0.185000X-0.135000X-0.185000X0.135000X-0.185000X0*%
%ADD16RoundRect,0.150000X0.587500X0.150000X-0.587500X0.150000X-0.587500X-0.150000X0.587500X-0.150000X0*%
%ADD17RoundRect,0.135000X-0.135000X-0.185000X0.135000X-0.185000X0.135000X0.185000X-0.135000X0.185000X0*%
%ADD18RoundRect,0.140000X-0.140000X-0.170000X0.140000X-0.170000X0.140000X0.170000X-0.140000X0.170000X0*%
G04 APERTURE END LIST*
D10*
%TO.C,J2*%
X99400000Y-97800000D03*
D11*
X101400000Y-97800000D03*
X103400000Y-97800000D03*
X105400000Y-97800000D03*
%TD*%
D10*
%TO.C,J4*%
X130500000Y-79400000D03*
D11*
X130500000Y-81400000D03*
X130500000Y-83400000D03*
X130500000Y-85400000D03*
X130500000Y-87400000D03*
X130500000Y-89400000D03*
X130500000Y-91400000D03*
%TD*%
D10*
%TO.C,J3*%
X125300000Y-85400000D03*
D11*
X125300000Y-87400000D03*
X125300000Y-89400000D03*
X125300000Y-91400000D03*
%TD*%
D12*
%TO.C,J1*%
X78440000Y-82710000D03*
X78440000Y-88490000D03*
D13*
X74790000Y-89920000D03*
D14*
X78970000Y-89920000D03*
D13*
X74790000Y-81280000D03*
D14*
X78970000Y-81280000D03*
%TD*%
D15*
%TO.C,R14*%
X117810000Y-76500000D03*
X116790000Y-76500000D03*
%TD*%
%TO.C,R21*%
X117810000Y-81300000D03*
X116790000Y-81300000D03*
%TD*%
%TO.C,R10*%
X117810000Y-87300000D03*
X116790000Y-87300000D03*
%TD*%
D16*
%TO.C,Q1*%
X119237500Y-82650000D03*
X119237500Y-84550000D03*
X117362500Y-83600000D03*
%TD*%
D17*
%TO.C,R18*%
X89890000Y-79600000D03*
X90910000Y-79600000D03*
%TD*%
%TO.C,R27*%
X89890000Y-86300000D03*
X90910000Y-86300000D03*
%TD*%
%TO.C,R19*%
X89890000Y-76900000D03*
X90910000Y-76900000D03*
%TD*%
D15*
%TO.C,R11*%
X117910000Y-94000000D03*
X116890000Y-94000000D03*
%TD*%
D17*
%TO.C,R16*%
X89890000Y-85100000D03*
X90910000Y-85100000D03*
%TD*%
%TO.C,R31*%
X116890000Y-95200000D03*
X117910000Y-95200000D03*
%TD*%
%TO.C,R28*%
X89880000Y-78300000D03*
X90900000Y-78300000D03*
%TD*%
D18*
%TO.C,C1*%
X74820000Y-86000000D03*
X75780000Y-86000000D03*
%TD*%
D17*
%TO.C,R29*%
X116790000Y-78900000D03*
X117810000Y-78900000D03*
%TD*%
D15*
%TO.C,R15*%
X117810000Y-75300000D03*
X116790000Y-75300000D03*
%TD*%
%TO.C,R1*%
X75810000Y-84600000D03*
X74790000Y-84600000D03*
%TD*%
D17*
%TO.C,R13*%
X89890000Y-80900000D03*
X90910000Y-80900000D03*
%TD*%
%TO.C,R12*%
X89890000Y-82100000D03*
X90910000Y-82100000D03*
%TD*%
%TO.C,R17*%
X89890000Y-87500000D03*
X90910000Y-87500000D03*
%TD*%
%TO.C,R22*%
X116790000Y-86100000D03*
X117810000Y-86100000D03*
%TD*%
D15*
%TO.C,R26*%
X117810000Y-77800000D03*
X116790000Y-77800000D03*
%TD*%
D17*
%TO.C,R25*%
X89890000Y-83500000D03*
X90910000Y-83500000D03*
%TD*%
D15*
%TO.C,R20*%
X117810000Y-80100000D03*
X116790000Y-80100000D03*
%TD*%
D17*
%TO.C,R30*%
X116890000Y-96300000D03*
X117910000Y-96300000D03*
%TD*%
M02*
